<?xml version="1.0" encoding="utf-8"?>
<!DOCTYPE svg PUBLIC "-//W3C//DTD SVG 20010904//EN" "http://www.w3.org/TR/2001/REC-SVG-20010904/DTD/svg10.dtd">
<svg version="1.0" xmlns="http://www.w3.org/2000/svg" width="512pt" height="512pt" viewBox="0 0 512 512" style="" preserveAspectRatio="xMidYMid meet">
<g fill="#A0C8FFFF" stroke="#A0C8FFFF">
<path d="M 267.500 125.397 C 244.945 129.127 223.569 138.454 206.484 152.022 C 197.680 159.014 185.060 172.520 179.157 181.267 L 174.003 188.905 180.804 193.304 C 199.920 205.670 215.770 224.472 224.662 245.329 C 228.884 255.232 228.976 259.178 225.077 263.077 C 222.806 265.348 221.248 266.000 218.093 266.000 C 212.645 266.000 209.119 262.519 205.432 253.500 C 199.487 238.960 185.128 221.377 171.601 212.069 C 163.967 206.817 149.083 200.227 139.440 197.831 C 126.173 194.533 106.215 194.737 92.732 198.307 C 81.798 201.203 69.767 206.850 60.606 213.387 C 53.810 218.237 41.964 230.278 37.300 237.077 C 17.792 265.515 15.222 303.453 30.699 334.500 C 43.049 359.271 64.937 377.213 92.500 385.157 L 100.500 387.462 212.045 387.981 C 336.512 388.560 327.418 387.983 330.127 395.475 L 331.402 399.000 340.701 399.000 C 349.210 399.000 350.000 398.837 350.000 397.077 C 350.000 396.019 351.152 393.784 352.560 392.111 C 357.745 385.949 366.670 387.476 369.859 395.072 L 371.500 398.980 380.750 398.990 C 389.312 398.999 390.000 398.852 390.000 397.016 C 390.000 395.924 391.312 393.562 392.916 391.766 L 395.832 388.500 419.666 387.934 C 444.663 387.340 447.272 386.913 457.500 381.747 C 478.089 371.347 490.961 351.046 491.262 328.500 C 491.411 317.371 489.937 310.899 484.797 300.101 C 477.368 284.495 461.594 272.049 444.000 267.911 C 430.470 264.729 414.102 267.252 399.849 274.718 C 392.251 278.698 388.878 278.606 384.573 274.300 C 380.981 270.709 380.947 263.963 384.501 260.408 C 387.999 256.910 402.149 250.358 410.500 248.369 C 414.350 247.452 418.079 246.552 418.787 246.368 C 420.439 245.940 419.685 239.185 416.426 225.226 C 410.604 200.291 398.206 178.973 378.706 160.370 C 360.563 143.062 339.603 131.919 315.000 126.502 C 304.869 124.272 278.073 123.648 267.500 125.397 "/></g>
<g fill="#000000FF" stroke="#000000FF">
<path d="M 272.500 103.594 C 243.128 107.760 224.001 114.739 202.288 129.211 C 187.914 138.792 170.854 155.798 161.545 169.826 C 155.707 178.623 154.382 180.062 152.596 179.540 C 139.701 175.773 131.734 174.690 117.000 174.702 C 100.528 174.715 93.133 175.849 78.927 180.544 C 42.895 192.451 13.189 224.280 3.370 261.500 C -0.482 276.101 -1.104 300.010 1.979 315.000 C 6.466 336.817 16.525 356.162 31.658 372.076 C 50.230 391.606 74.666 404.343 100.434 407.928 C 105.531 408.636 144.683 409.000 215.938 409.000 L 323.730 409.000 326.440 406.869 C 330.464 403.703 331.265 400.704 329.359 395.940 C 326.391 388.522 334.220 389.000 215.681 389.000 C 126.598 389.000 107.897 388.761 100.881 387.532 C 63.571 380.998 34.644 355.175 23.314 318.288 C 20.833 310.212 20.610 308.083 20.557 292.000 C 20.507 276.580 20.775 273.551 22.811 266.518 C 34.253 226.988 66.309 199.682 106.796 194.975 C 129.565 192.328 154.297 198.829 173.500 212.508 C 186.877 222.037 200.954 239.686 206.547 253.941 C 210.564 264.182 214.976 267.290 221.577 264.532 C 228.054 261.826 228.584 256.456 223.526 244.785 C 215.531 226.335 197.481 205.026 180.823 194.369 C 176.795 191.793 173.342 189.561 173.150 189.409 C 172.177 188.642 186.042 170.224 192.783 163.328 C 217.207 138.344 247.071 125.039 282.500 123.358 C 349.802 120.165 409.461 169.238 419.399 235.965 C 420.252 241.695 420.849 246.480 420.725 246.599 C 420.601 246.718 416.542 247.753 411.705 248.900 C 401.922 251.218 389.374 256.899 385.518 260.755 C 383.117 263.155 382.563 265.035 382.938 269.500 C 383.169 272.255 388.520 277.000 391.396 277.000 C 392.696 277.000 397.302 275.214 401.630 273.031 C 405.959 270.849 412.182 268.374 415.460 267.531 C 423.081 265.573 437.870 265.565 445.540 267.515 C 467.353 273.060 484.940 290.647 490.485 312.460 C 492.426 320.096 492.430 334.931 490.492 342.368 C 486.036 359.477 474.092 374.367 458.500 382.249 C 447.889 387.614 444.021 388.271 419.352 388.905 C 393.404 389.572 392.966 389.698 390.983 397.061 C 389.661 401.971 391.019 405.441 395.083 407.543 C 397.832 408.965 401.376 409.124 421.876 408.747 C 449.104 408.246 453.942 407.274 469.500 399.181 C 476.533 395.523 480.489 392.533 487.601 385.500 C 498.057 375.160 503.829 366.144 508.281 353.198 C 510.886 345.621 511.334 342.688 511.756 330.444 C 512.172 318.361 511.942 315.201 510.114 307.944 C 502.566 277.967 479.740 255.239 449.744 247.834 L 441.077 245.694 440.487 241.097 C 436.375 209.064 426.838 185.145 409.052 162.254 C 386.212 132.858 355.601 113.895 318.000 105.847 C 308.837 103.886 280.376 102.476 272.500 103.594 "/></g>
<g fill="#000000FF" stroke="#000000FF">
<path d="M 357.000 389.709 C 352.306 391.435 349.132 398.587 350.945 403.355 C 352.968 408.676 361.642 410.643 366.440 406.869 C 370.464 403.703 371.265 400.704 369.359 395.940 C 367.177 390.487 361.993 387.873 357.000 389.709 "/></g>
</svg>
