<?xml version="1.0" encoding="utf-8"?>
<!DOCTYPE svg PUBLIC "-//W3C//DTD SVG 20010904//EN" "http://www.w3.org/TR/2001/REC-SVG-20010904/DTD/svg10.dtd">
<svg version="1.0" xmlns="http://www.w3.org/2000/svg" width="512pt" height="512pt" viewBox="0 0 512 512" style="" preserveAspectRatio="xMidYMid meet">
<g fill="#A0C8FFFF" stroke="#A0C8FFFF">
<path d="M 257.246 214.061 C 221.967 216.887 188.088 236.342 168.278 265.151 L 163.057 272.744 169.994 277.357 C 185.479 287.654 199.350 303.633 207.805 320.914 C 214.819 335.250 214.149 342.145 205.465 345.012 C 202.904 345.857 201.399 345.776 198.701 344.648 C 195.673 343.383 194.522 341.736 189.678 331.737 C 177.686 306.980 160.338 291.672 135.000 283.488 C 123.862 279.890 103.665 278.889 91.785 281.346 C 80.893 283.598 69.666 288.174 60.883 293.940 C 51.149 300.330 37.711 314.494 32.299 324.068 C 8.958 365.359 21.590 416.994 61.340 442.777 C 68.889 447.673 76.869 451.212 87.500 454.377 C 94.351 456.416 96.763 456.472 200.832 456.980 L 307.165 457.500 310.082 460.766 C 311.687 462.562 313.000 464.924 313.000 466.016 C 313.000 467.854 313.692 468.000 322.421 468.000 L 331.841 468.000 332.494 465.027 C 333.410 460.858 338.304 457.000 342.677 457.000 C 345.350 457.000 347.020 457.820 349.600 460.400 C 351.470 462.270 353.000 464.745 353.000 465.900 C 353.000 467.885 353.517 468.000 362.421 468.000 L 371.841 468.000 372.494 465.027 C 372.853 463.392 374.498 460.917 376.150 459.527 C 379.032 457.102 379.690 457.000 392.417 457.000 C 415.021 457.000 426.055 452.980 439.027 440.020 C 450.537 428.521 455.426 416.593 455.281 400.365 C 455.009 369.889 430.475 345.966 399.540 346.012 C 389.830 346.026 382.807 347.768 373.500 352.471 C 364.780 356.878 360.867 357.021 356.923 353.077 C 353.066 349.220 352.879 343.486 356.469 339.219 C 359.777 335.288 372.347 329.285 381.647 327.196 L 389.193 325.500 388.540 319.689 C 386.965 305.679 380.977 288.265 372.918 274.260 C 349.450 233.476 304.822 210.250 257.246 214.061 "/></g>
<g fill="#000000FF" stroke="#000000FF">
<path d="M 332.000 100.086 C 292.141 104.445 257.985 132.183 245.104 170.653 C 243.971 174.037 242.356 180.753 241.514 185.577 C 240.673 190.401 239.766 194.568 239.497 194.836 C 239.229 195.104 234.991 196.365 230.078 197.637 C 213.855 201.839 196.105 210.488 182.237 220.948 C 171.855 228.777 156.603 244.681 150.059 254.500 C 147.127 258.900 144.446 262.820 144.102 263.212 C 143.758 263.603 140.107 263.007 135.988 261.887 C 130.618 260.427 124.117 259.703 113.000 259.328 C 99.718 258.879 96.027 259.109 87.206 260.930 C 46.429 269.351 14.591 299.164 3.314 339.487 C 0.193 350.646 -0.967 373.673 0.979 385.821 C 7.520 426.650 37.134 460.725 76.762 473.017 C 92.365 477.857 95.708 477.988 204.115 477.994 C 305.485 478.000 305.737 477.995 308.371 475.922 C 312.418 472.739 313.232 470.574 312.042 466.155 C 311.473 464.044 310.060 461.459 308.900 460.409 C 306.861 458.563 303.312 458.483 201.146 457.978 C 96.974 457.463 95.394 457.426 87.921 455.313 C 55.545 446.157 33.623 425.299 23.480 394.000 C 21.136 386.765 20.661 383.342 20.288 371.000 C 19.890 357.844 20.088 355.578 22.417 346.552 C 30.481 315.313 54.161 290.882 85.008 281.979 C 95.722 278.886 114.824 278.175 126.058 280.452 C 147.949 284.887 167.143 296.759 180.214 313.946 C 182.955 317.551 187.609 325.500 190.557 331.611 C 194.945 340.708 196.464 342.950 198.939 343.975 C 202.730 345.545 206.438 344.652 209.708 341.383 C 213.246 337.845 212.477 332.629 206.652 320.653 C 197.077 300.973 183.728 286.783 162.146 273.346 C 161.018 272.644 173.836 256.134 181.489 248.433 C 199.300 230.511 221.590 218.872 246.385 214.548 C 257.635 212.586 277.214 212.560 288.290 214.491 C 339.626 223.444 379.675 263.553 388.534 314.886 C 389.417 320.005 389.897 324.825 389.601 325.597 C 389.305 326.368 387.890 327.000 386.458 327.000 C 379.503 327.000 359.646 335.812 356.509 340.291 C 354.118 343.704 354.578 349.669 357.455 352.545 C 360.881 355.972 365.123 355.698 373.500 351.508 C 383.968 346.273 391.676 344.645 403.000 345.276 C 427.799 346.657 448.168 363.158 454.515 387.008 C 456.421 394.171 456.400 408.045 454.472 415.448 C 450.977 428.863 441.904 441.228 429.826 449.034 C 419.952 455.416 413.034 457.139 394.352 457.869 C 376.113 458.582 374.865 459.073 372.916 466.313 C 371.990 469.751 372.109 470.671 373.766 472.904 C 377.386 477.781 379.162 478.143 397.000 477.637 C 408.086 477.323 415.457 476.621 419.464 475.498 C 447.379 467.672 468.111 446.135 474.608 418.214 C 476.695 409.241 476.623 392.152 474.460 383.344 C 467.813 356.271 445.599 333.673 419.443 327.374 C 415.624 326.455 411.976 325.573 411.337 325.416 C 410.685 325.255 409.863 322.128 409.469 318.315 C 409.082 314.567 407.463 306.325 405.872 300.000 L 402.979 288.500 406.740 285.507 C 432.684 264.858 447.000 235.706 447.000 203.521 C 447.000 149.419 407.532 105.541 353.919 100.040 C 342.830 98.902 342.832 98.902 332.000 100.086 M 364.000 122.153 C 387.023 127.920 407.728 144.501 418.368 165.693 C 419.802 168.548 422.185 174.848 423.663 179.693 C 426.011 187.389 426.358 190.266 426.412 202.500 C 426.481 218.321 425.062 225.479 419.406 237.840 C 414.961 247.552 408.676 256.203 400.520 263.833 L 393.851 270.071 389.052 262.086 C 382.438 251.082 375.713 242.874 364.627 232.276 C 339.410 208.168 306.211 194.412 271.556 193.713 L 261.002 193.500 261.001 190.980 C 261.000 189.594 261.911 185.171 263.025 181.151 C 275.162 137.354 320.029 111.139 364.000 122.153 "/></g>
<g fill="#FFCD69FF" stroke="#FFCD69FF">
<path d="M 332.500 121.047 C 301.555 125.831 276.478 146.128 265.982 174.886 C 264.395 179.236 262.800 185.026 262.438 187.753 L 261.780 192.712 275.640 193.304 C 302.592 194.453 328.129 203.274 350.353 219.112 C 365.776 230.103 382.342 248.132 390.713 263.035 C 392.246 265.765 393.871 267.998 394.324 267.999 C 396.174 268.001 407.478 256.069 411.927 249.418 C 422.243 233.993 426.619 217.988 425.694 199.058 C 425.020 185.260 423.325 178.502 417.529 166.500 C 412.621 156.335 404.331 145.886 395.465 138.689 C 388.284 132.859 371.950 124.794 363.000 122.658 C 354.544 120.640 340.077 119.876 332.500 121.047 "/></g>
<g fill="#000000FF" stroke="#000000FF">
<path d="M 417.082 50.750 C 414.515 52.850 399.106 80.345 398.312 84.244 C 397.592 87.774 399.552 92.477 402.566 94.451 C 405.568 96.419 411.916 96.448 414.687 94.507 C 415.859 93.686 420.684 86.067 425.409 77.577 C 435.267 59.865 435.946 56.792 431.077 51.923 C 428.719 49.565 427.291 49.000 423.688 49.000 C 420.916 49.000 418.410 49.664 417.082 50.750 "/></g>
<g fill="#000000FF" stroke="#000000FF">
<path d="M 293.500 35.106 C 290.071 37.086 288.045 40.362 288.022 43.965 C 287.998 47.788 295.391 74.845 297.685 79.329 C 299.452 82.782 305.128 85.350 309.077 84.483 C 313.015 83.618 317.000 78.648 317.000 74.600 C 317.000 68.988 308.065 39.759 305.559 37.175 C 302.950 34.484 296.495 33.377 293.500 35.106 "/></g>
<g fill="#000000FF" stroke="#000000FF">
<path d="M 192.457 115.283 C 190.521 116.949 189.661 118.828 189.277 122.235 C 188.807 126.404 189.059 127.209 191.625 129.747 C 193.206 131.310 200.839 136.056 208.587 140.295 C 226.200 149.929 231.632 150.479 235.490 143.020 C 239.617 135.039 236.761 131.428 218.270 121.250 C 201.466 112.000 197.374 111.054 192.457 115.283 "/></g>
<g fill="#000000FF" stroke="#000000FF">
<path d="M 453.759 260.348 C 450.171 263.673 449.408 268.157 451.670 272.618 C 453.206 275.647 455.911 277.570 468.500 284.581 C 480.726 291.389 484.300 292.940 487.827 292.967 C 496.384 293.032 501.227 283.372 495.980 276.702 C 494.869 275.290 487.284 270.504 479.124 266.067 C 462.447 256.999 458.365 256.079 453.759 260.348 "/></g>
<g fill="#000000FF" stroke="#000000FF">
<path d="M 483.119 152.008 C 473.270 154.900 465.949 157.607 464.759 158.797 C 463.631 159.925 462.566 162.671 462.283 165.184 C 461.865 168.886 462.200 170.085 464.373 172.667 C 468.487 177.556 471.021 177.496 490.216 172.053 C 509.749 166.514 512.000 165.049 512.000 157.878 C 512.000 152.829 510.722 150.425 507.020 148.510 C 502.930 146.395 501.546 146.598 483.119 152.008 "/></g>
<g fill="#000000FF" stroke="#000000FF">
<path d="M 336.659 460.054 C 333.609 462.453 331.453 469.110 332.870 471.757 C 336.971 479.421 346.778 479.847 351.547 472.569 C 355.065 467.200 349.352 458.000 342.500 458.000 C 340.723 458.000 338.095 458.924 336.659 460.054 "/></g>
</svg>
