<?xml version="1.0" encoding="utf-8"?>
<!DOCTYPE svg PUBLIC "-//W3C//DTD SVG 20010904//EN" "http://www.w3.org/TR/2001/REC-SVG-20010904/DTD/svg10.dtd">
<svg version="1.0" xmlns="http://www.w3.org/2000/svg" width="512pt" height="512pt" viewBox="0 0 512 512" style="" preserveAspectRatio="xMidYMid meet">
<g fill="#A0C8FFFF" stroke="#A0C8FFFF">
<path d="M 267.500 40.397 C 244.945 44.127 223.569 53.454 206.484 67.022 C 197.680 74.014 185.060 87.520 179.157 96.267 L 174.003 103.905 180.804 108.304 C 199.920 120.670 215.770 139.472 224.662 160.329 C 228.884 170.232 228.976 174.178 225.077 178.077 C 222.806 180.348 221.248 181.000 218.093 181.000 C 212.645 181.000 209.119 177.519 205.432 168.500 C 199.487 153.960 185.128 136.377 171.601 127.069 C 163.967 121.817 149.083 115.227 139.440 112.831 C 126.173 109.533 106.215 109.737 92.732 113.307 C 81.798 116.203 69.767 121.850 60.606 128.387 C 53.810 133.237 41.964 145.278 37.300 152.077 C 17.792 180.515 15.222 218.453 30.699 249.500 C 43.049 274.271 64.937 292.213 92.500 300.157 L 100.500 302.462 212.045 302.981 C 336.512 303.560 327.418 302.983 330.127 310.475 L 331.402 314.000 340.701 314.000 C 349.210 314.000 350.000 313.837 350.000 312.077 C 350.000 311.019 351.152 308.784 352.560 307.111 C 357.745 300.949 366.670 302.476 369.859 310.072 L 371.500 313.980 380.750 313.990 C 389.312 313.999 390.000 313.852 390.000 312.016 C 390.000 310.924 391.312 308.562 392.916 306.766 L 395.832 303.500 419.666 302.934 C 444.663 302.340 447.272 301.913 457.500 296.747 C 478.089 286.347 490.961 266.046 491.262 243.500 C 491.411 232.371 489.937 225.899 484.797 215.101 C 477.368 199.495 461.594 187.049 444.000 182.911 C 430.470 179.729 414.102 182.252 399.849 189.718 C 392.251 193.698 388.878 193.606 384.573 189.300 C 380.981 185.709 380.947 178.963 384.501 175.408 C 387.999 171.910 402.149 165.358 410.500 163.369 C 414.350 162.452 418.079 161.552 418.787 161.368 C 420.439 160.940 419.685 154.185 416.426 140.226 C 410.604 115.291 398.206 93.973 378.706 75.370 C 360.563 58.062 339.603 46.919 315.000 41.502 C 304.869 39.272 278.073 38.648 267.500 40.397 "/></g>
<g fill="#000000FF" stroke="#000000FF">
<path d="M 272.500 18.594 C 243.128 22.760 224.001 29.739 202.288 44.211 C 187.914 53.792 170.854 70.798 161.545 84.826 C 155.707 93.623 154.382 95.062 152.596 94.540 C 139.701 90.773 131.734 89.690 117.000 89.702 C 100.528 89.715 93.133 90.849 78.927 95.544 C 42.895 107.451 13.189 139.280 3.370 176.500 C -0.482 191.101 -1.104 215.010 1.979 230.000 C 6.466 251.817 16.525 271.162 31.658 287.076 C 50.230 306.606 74.666 319.343 100.434 322.928 C 105.531 323.636 144.683 324.000 215.938 324.000 L 323.730 324.000 326.440 321.869 C 330.464 318.703 331.265 315.704 329.359 310.940 C 326.391 303.522 334.220 304.000 215.681 304.000 C 126.598 304.000 107.897 303.761 100.881 302.532 C 63.571 295.998 34.644 270.175 23.314 233.288 C 20.833 225.212 20.610 223.083 20.557 207.000 C 20.507 191.580 20.775 188.551 22.811 181.518 C 34.253 141.988 66.309 114.682 106.796 109.975 C 129.565 107.328 154.297 113.829 173.500 127.508 C 186.877 137.037 200.954 154.686 206.547 168.941 C 210.564 179.182 214.976 182.290 221.577 179.532 C 228.054 176.826 228.584 171.456 223.526 159.785 C 215.531 141.335 197.481 120.026 180.823 109.369 C 176.795 106.793 173.342 104.561 173.150 104.409 C 172.177 103.642 186.042 85.224 192.783 78.328 C 217.207 53.344 247.071 40.039 282.500 38.358 C 349.802 35.165 409.461 84.238 419.399 150.965 C 420.252 156.695 420.849 161.480 420.725 161.599 C 420.601 161.718 416.542 162.753 411.705 163.900 C 401.922 166.218 389.374 171.899 385.518 175.755 C 381.551 179.722 381.777 185.267 386.069 189.250 C 390.003 192.901 392.379 192.727 401.371 188.129 C 405.534 186.000 411.858 183.525 415.425 182.629 C 423.563 180.585 437.736 180.531 445.540 182.515 C 467.353 188.060 484.940 205.647 490.485 227.460 C 492.426 235.096 492.430 249.931 490.492 257.368 C 486.036 274.477 474.092 289.367 458.500 297.249 C 447.889 302.614 444.021 303.271 419.352 303.905 C 393.404 304.572 392.966 304.698 390.983 312.061 C 389.661 316.971 391.019 320.441 395.083 322.543 C 397.832 323.965 401.376 324.124 421.876 323.747 C 449.104 323.246 453.942 322.274 469.500 314.181 C 476.533 310.523 480.489 307.533 487.601 300.500 C 498.057 290.160 503.829 281.144 508.281 268.198 C 510.886 260.621 511.334 257.688 511.756 245.444 C 512.172 233.361 511.942 230.201 510.114 222.944 C 502.566 192.967 479.740 170.239 449.744 162.834 L 441.077 160.694 440.487 156.097 C 436.375 124.064 426.838 100.145 409.052 77.254 C 386.212 47.858 355.601 28.895 318.000 20.847 C 308.837 18.886 280.376 17.476 272.500 18.594 "/></g>
<g fill="#000000FF" stroke="#000000FF">
<path d="M 321.951 429.298 C 315.929 431.007 311.010 434.139 306.484 439.149 C 300.462 445.815 298.518 451.155 298.530 461.000 C 298.543 471.773 301.068 477.883 308.355 484.775 C 315.029 491.087 321.292 493.500 331.000 493.500 C 340.708 493.500 346.971 491.087 353.645 484.775 C 360.925 477.890 363.454 471.775 363.480 461.000 C 363.497 453.712 363.105 451.696 360.730 446.858 C 357.504 440.290 350.732 433.654 344.394 430.850 C 338.748 428.353 327.923 427.604 321.951 429.298 M 336.938 449.827 C 346.803 455.118 345.718 469.240 335.159 472.969 C 327.245 475.765 319.413 470.841 318.368 462.413 C 317.490 455.332 323.915 448.000 331.000 448.000 C 332.392 448.000 335.064 448.822 336.938 449.827 "/></g>
<g fill="#000000FF" stroke="#000000FF">
<path d="M 171.951 429.298 C 165.929 431.007 161.010 434.139 156.484 439.149 C 150.462 445.815 148.518 451.155 148.530 461.000 C 148.543 471.773 151.068 477.883 158.355 484.775 C 165.029 491.087 171.292 493.500 181.000 493.500 C 190.708 493.500 196.971 491.087 203.645 484.775 C 210.925 477.890 213.454 471.775 213.480 461.000 C 213.497 453.712 213.105 451.696 210.730 446.858 C 207.504 440.290 200.732 433.654 194.394 430.850 C 188.748 428.353 177.923 427.604 171.951 429.298 M 186.938 449.827 C 196.803 455.118 195.718 469.240 185.159 472.969 C 177.245 475.765 169.413 470.841 168.368 462.413 C 167.490 455.332 173.915 448.000 181.000 448.000 C 182.392 448.000 185.064 448.822 186.938 449.827 "/></g>
<g fill="#000000FF" stroke="#000000FF">
<path d="M 396.951 344.298 C 390.929 346.007 386.010 349.139 381.484 354.149 C 375.462 360.815 373.518 366.155 373.530 376.000 C 373.543 386.773 376.068 392.883 383.355 399.775 C 390.029 406.087 396.292 408.500 406.000 408.500 C 415.708 408.500 421.971 406.087 428.645 399.775 C 435.925 392.890 438.454 386.775 438.480 376.000 C 438.497 368.712 438.105 366.696 435.730 361.858 C 432.504 355.290 425.732 348.654 419.394 345.850 C 413.748 343.353 402.923 342.604 396.951 344.298 M 411.938 364.827 C 421.803 370.118 420.718 384.240 410.159 387.969 C 402.245 390.765 394.413 385.841 393.368 377.413 C 392.490 370.332 398.915 363.000 406.000 363.000 C 407.392 363.000 410.064 363.822 411.938 364.827 "/></g>
<g fill="#000000FF" stroke="#000000FF">
<path d="M 246.951 344.298 C 240.929 346.007 236.010 349.139 231.484 354.149 C 225.462 360.815 223.518 366.155 223.530 376.000 C 223.543 386.773 226.068 392.883 233.355 399.775 C 240.029 406.087 246.292 408.500 256.000 408.500 C 265.708 408.500 271.971 406.087 278.645 399.775 C 285.925 392.890 288.454 386.775 288.480 376.000 C 288.497 368.712 288.105 366.696 285.730 361.858 C 282.504 355.290 275.732 348.654 269.394 345.850 C 263.748 343.353 252.923 342.604 246.951 344.298 M 261.938 364.827 C 271.803 370.118 270.718 384.240 260.159 387.969 C 252.245 390.765 244.413 385.841 243.368 377.413 C 242.490 370.332 248.915 363.000 256.000 363.000 C 257.392 363.000 260.064 363.822 261.938 364.827 "/></g>
<g fill="#000000FF" stroke="#000000FF">
<path d="M 96.951 344.298 C 90.929 346.007 86.010 349.139 81.484 354.149 C 75.462 360.815 73.518 366.155 73.530 376.000 C 73.543 386.773 76.068 392.883 83.355 399.775 C 90.029 406.087 96.292 408.500 106.000 408.500 C 115.708 408.500 121.971 406.087 128.645 399.775 C 135.925 392.890 138.454 386.775 138.480 376.000 C 138.497 368.712 138.105 366.696 135.730 361.858 C 132.504 355.290 125.732 348.654 119.394 345.850 C 113.748 343.353 102.923 342.604 96.951 344.298 M 111.938 364.827 C 121.803 370.118 120.718 384.240 110.159 387.969 C 102.245 390.765 94.413 385.841 93.368 377.413 C 92.490 370.332 98.915 363.000 106.000 363.000 C 107.392 363.000 110.064 363.822 111.938 364.827 "/></g>
<g fill="#000000FF" stroke="#000000FF">
<path d="M 357.000 304.709 C 352.306 306.435 349.132 313.587 350.945 318.355 C 352.968 323.676 361.642 325.643 366.440 321.869 C 370.464 318.703 371.265 315.704 369.359 310.940 C 367.177 305.487 361.993 302.873 357.000 304.709 "/></g>
</svg>
