<?xml version="1.0" encoding="utf-8"?>
<!DOCTYPE svg PUBLIC "-//W3C//DTD SVG 20010904//EN" "http://www.w3.org/TR/2001/REC-SVG-20010904/DTD/svg10.dtd">
<svg version="1.0" xmlns="http://www.w3.org/2000/svg" width="512pt" height="512pt" viewBox="0 0 512 512" style="" preserveAspectRatio="xMidYMid meet">
<g fill="#000000FF" stroke="#000000FF">
<path d="M 315.000 60.871 C 277.726 69.029 249.736 97.933 242.264 135.982 L 240.445 145.241 233.471 147.012 C 217.324 151.113 201.065 159.077 187.269 169.645 C 177.777 176.915 164.686 190.907 159.000 199.860 C 155.002 206.156 154.221 206.883 152.000 206.380 C 139.855 203.629 134.840 203.032 123.708 203.017 C 95.942 202.980 73.595 211.783 54.206 230.397 C 21.739 261.568 13.921 308.811 34.580 349.009 C 47.182 373.528 70.750 392.217 98.500 399.696 L 108.500 402.392 168.000 402.765 L 227.500 403.139 229.436 407.121 C 231.849 412.085 237.824 417.564 243.878 420.363 C 248.371 422.441 249.873 422.508 297.878 422.794 C 331.372 422.994 348.980 422.731 352.618 421.976 C 361.088 420.217 367.978 414.793 374.500 404.749 C 375.261 403.577 378.068 403.090 386.234 402.713 L 396.968 402.217 399.201 406.688 C 401.919 412.131 407.677 417.496 413.878 420.363 C 418.042 422.288 420.234 422.500 436.000 422.500 C 453.152 422.500 453.614 422.444 459.214 419.694 C 470.187 414.306 476.427 403.883 476.241 391.253 C 476.043 377.765 466.119 365.319 453.369 362.569 L 450.238 361.893 452.784 354.697 C 456.222 344.980 457.020 327.682 454.544 316.552 C 451.248 301.737 441.463 286.311 429.716 277.407 C 422.158 271.679 409.486 265.600 401.884 264.055 L 396.267 262.914 395.609 256.488 C 395.247 252.954 393.840 245.685 392.484 240.336 L 390.016 230.611 393.758 227.638 C 431.753 197.450 440.775 142.512 414.427 101.782 C 402.249 82.955 383.360 68.959 361.282 62.401 C 349.209 58.815 327.649 58.102 315.000 60.871 M 287.500 164.891 C 334.312 174.592 369.750 212.129 375.493 258.096 L 376.189 263.666 369.435 265.333 C 361.582 267.271 352.945 271.042 348.374 274.528 C 342.665 278.883 343.047 287.422 349.091 290.547 C 353.108 292.624 354.105 292.448 363.287 288.045 C 378.613 280.696 393.012 280.526 407.832 287.519 C 421.244 293.849 432.092 307.500 435.059 321.781 C 437.578 333.903 434.871 349.551 428.624 358.992 C 426.528 362.159 425.484 362.798 421.714 363.223 C 413.241 364.178 403.129 371.232 399.819 378.499 C 398.348 381.726 397.154 382.064 385.000 382.687 L 374.500 383.225 372.074 378.543 C 370.740 375.967 367.666 372.116 365.244 369.984 C 357.151 362.860 357.677 362.914 299.413 363.224 L 247.500 363.500 242.670 365.967 C 237.145 368.789 231.468 374.636 229.365 379.669 L 227.924 383.117 169.712 382.764 C 113.486 382.423 111.227 382.336 103.500 380.219 C 70.004 371.043 46.583 343.083 43.400 308.470 C 41.237 284.945 52.669 257.348 70.901 242.083 C 86.325 229.169 103.256 223.042 123.590 223.015 C 146.484 222.984 165.907 231.456 181.734 248.375 C 188.195 255.282 194.726 265.447 197.554 273.000 C 200.990 282.173 208.294 284.860 214.077 279.077 C 217.654 275.500 217.844 271.897 214.839 264.685 C 208.233 248.831 193.713 230.800 180.017 221.442 C 176.158 218.805 173.000 216.218 173.000 215.693 C 173.000 215.168 174.651 212.435 176.669 209.619 C 194.839 184.265 220.150 168.829 252.000 163.677 C 259.410 162.478 279.107 163.152 287.500 164.891 M 356.500 81.992 C 391.133 92.903 413.348 126.513 409.008 161.436 C 406.885 178.521 400.290 192.346 388.272 204.904 L 381.044 212.456 377.449 206.478 C 371.588 196.733 366.205 190.008 357.057 181.000 C 333.858 158.155 300.885 144.000 270.869 144.000 L 262.000 144.000 262.000 140.926 C 262.000 139.236 263.151 134.398 264.558 130.176 C 272.791 105.466 294.024 86.232 319.500 80.404 C 328.437 78.360 347.577 79.181 356.500 81.992 M 353.077 384.923 C 355.420 387.266 356.000 388.717 356.000 392.236 C 356.000 395.829 355.444 397.159 352.934 399.563 L 349.868 402.500 300.852 402.500 L 251.836 402.500 248.918 399.234 C 244.160 393.909 245.440 385.379 251.357 382.992 C 252.536 382.516 275.247 382.098 301.827 382.063 L 350.154 382.000 353.077 384.923 M 453.077 384.923 C 455.420 387.266 456.000 388.717 456.000 392.236 C 456.000 395.830 455.444 397.158 452.933 399.563 L 449.865 402.500 435.850 402.500 L 421.834 402.500 418.917 399.234 C 414.843 394.673 414.846 389.001 418.923 384.923 L 421.846 382.000 436.000 382.000 L 450.154 382.000 453.077 384.923 "/></g>
<g fill="#A0C8FFFF" stroke="#A0C8FFFF">
<path d="M 248.919 164.954 C 226.637 168.999 207.877 178.453 191.962 193.658 C 184.087 201.182 173.997 213.480 174.041 215.500 C 174.053 216.050 176.869 218.390 180.299 220.701 C 188.035 225.912 198.819 236.526 204.631 244.648 C 209.953 252.086 218.000 268.741 218.000 272.319 C 218.000 278.483 213.393 283.000 207.105 283.000 C 202.813 283.000 199.290 279.467 196.136 272.000 C 186.407 248.969 167.175 232.451 142.500 225.933 C 132.366 223.256 115.566 222.987 105.759 225.346 C 81.934 231.075 62.457 246.673 52.038 268.367 C 46.035 280.865 44.601 287.448 44.601 302.500 C 44.601 317.846 46.041 324.227 52.498 337.500 C 60.444 353.835 72.238 365.617 88.500 373.469 C 105.308 381.584 103.087 381.356 169.129 381.752 L 227.757 382.102 228.356 379.718 C 229.314 375.901 236.813 368.137 242.377 365.203 L 247.500 362.500 298.874 362.215 C 357.091 361.892 357.201 361.904 365.353 369.079 C 367.926 371.345 371.225 375.234 372.683 377.723 L 375.335 382.247 385.881 381.778 C 396.088 381.324 396.492 381.218 398.463 378.470 C 405.515 368.638 412.817 363.535 421.547 362.339 C 425.593 361.784 426.359 361.243 428.657 357.323 C 437.815 341.696 437.105 320.370 426.919 305.117 C 421.747 297.371 416.263 292.620 407.699 288.464 C 392.940 281.302 378.651 281.520 363.023 289.145 C 354.750 293.182 354.448 293.248 350.523 291.891 C 345.049 289.998 342.283 284.703 344.020 279.440 C 345.937 273.630 356.424 267.580 370.857 263.959 L 375.214 262.865 374.514 257.268 C 370.010 221.217 344.790 188.138 310.241 172.964 C 295.274 166.391 287.642 164.794 269.500 164.437 C 260.700 164.264 251.439 164.497 248.919 164.954 "/></g>
<g fill="#000000FF" stroke="#000000FF">
<path d="M 16.200 415.058 C 5.438 420.436 0.020 429.459 0.020 442.000 C 0.020 454.541 5.438 463.564 16.200 468.942 L 22.319 472.000 51.531 472.000 L 80.742 472.000 79.851 476.750 C 77.390 489.866 84.430 503.502 96.855 509.686 C 100.272 511.386 105.598 511.517 181.872 511.767 L 263.245 512.035 268.372 509.677 C 275.760 506.280 279.471 502.746 282.942 495.800 C 285.556 490.569 286.000 488.566 286.000 482.000 C 286.000 475.434 285.556 473.431 282.942 468.200 C 279.500 461.311 275.799 457.763 268.500 454.355 C 263.620 452.076 262.796 452.019 234.231 452.010 L 204.962 452.000 205.663 449.250 C 209.041 436.000 202.488 421.661 190.132 415.265 L 183.825 412.000 103.072 412.000 L 22.319 412.000 16.200 415.058 M 183.077 434.923 C 189.371 441.217 185.555 450.856 176.176 452.356 C 168.493 453.584 164.614 460.673 168.080 467.150 C 170.535 471.737 173.240 472.000 218.045 472.000 L 260.154 472.000 263.077 474.923 C 265.369 477.216 266.000 478.742 266.000 482.000 C 266.000 485.258 265.369 486.784 263.077 489.077 L 260.154 492.000 183.299 492.000 C 97.991 492.000 103.330 492.427 100.381 485.369 C 97.726 479.014 102.065 473.004 110.362 471.546 C 117.584 470.277 121.270 463.110 117.920 456.850 C 115.465 452.263 112.760 452.000 67.955 452.000 L 25.846 452.000 22.923 449.077 C 18.807 444.961 18.807 439.039 22.923 434.923 L 25.846 432.000 103.000 432.000 L 180.154 432.000 183.077 434.923 "/></g>
<g fill="#FFCD69FF" stroke="#FFCD69FF">
<path d="M 317.500 81.951 C 289.890 89.214 269.981 109.551 263.567 137.042 L 262.243 142.720 274.371 143.307 C 292.883 144.204 308.129 148.444 326.098 157.692 C 346.058 167.965 363.584 183.605 375.000 201.330 C 378.025 206.027 381.017 209.899 381.650 209.935 C 383.044 210.014 391.897 200.464 396.121 194.324 C 405.890 180.126 410.539 160.247 408.003 143.519 C 405.343 125.972 397.887 111.805 384.862 99.552 C 375.754 90.984 363.404 84.218 352.000 81.550 C 342.962 79.436 326.329 79.629 317.500 81.951 "/></g>
<g fill="#CFD3DFFF" stroke="#CFD3DFFF">
<path d="M 26.213 433.507 C 24.072 434.437 22.410 436.167 21.449 438.467 C 20.148 441.582 20.148 442.418 21.451 445.536 C 24.115 451.914 24.790 452.000 72.045 452.000 L 114.154 452.000 117.077 454.923 C 119.369 457.216 120.000 458.742 120.000 462.000 C 120.000 467.584 116.241 471.437 109.860 472.394 C 103.807 473.301 100.545 476.685 100.545 482.056 C 100.545 485.025 101.225 486.680 103.295 488.750 L 106.045 491.500 179.772 491.795 C 220.323 491.956 255.013 491.814 256.862 491.478 C 263.616 490.251 267.160 482.905 263.920 476.850 C 261.465 472.263 258.760 472.000 213.955 472.000 L 171.846 472.000 168.923 469.077 C 162.711 462.865 166.445 453.144 175.606 451.679 C 186.660 449.911 189.462 438.480 179.999 433.752 C 176.761 432.133 171.019 432.006 103.000 432.041 C 41.568 432.072 28.960 432.313 26.213 433.507 "/></g>
<g fill="#000000FF" stroke="#000000FF">
<path d="M 321.868 455.265 C 300.097 466.535 300.097 497.465 321.868 508.735 L 328.175 512.000 408.928 512.000 L 489.681 512.000 495.800 508.942 C 506.562 503.564 511.980 494.541 511.980 482.000 C 511.980 469.459 506.562 460.436 495.800 455.058 C 490.305 452.312 488.741 452.000 480.477 452.000 C 471.788 452.000 471.120 452.153 468.545 454.728 C 466.195 457.077 465.904 457.996 466.440 461.353 C 466.783 463.497 467.536 466.132 468.112 467.210 C 469.592 469.976 475.058 472.000 481.045 472.000 C 485.358 472.000 486.609 472.455 489.077 474.923 C 493.193 479.039 493.193 484.961 489.077 489.077 L 486.154 492.000 409.000 492.000 L 331.846 492.000 328.923 489.077 C 326.631 486.784 326.000 485.258 326.000 482.000 C 326.000 478.742 326.631 477.216 328.923 474.923 L 331.846 472.000 364.173 471.998 C 400.417 471.997 401.982 471.733 405.087 465.120 C 407.058 460.920 406.516 457.788 403.252 454.524 L 400.727 452.000 364.451 452.000 L 328.175 452.000 321.868 455.265 "/></g>
<g fill="#CFD3DFFF" stroke="#CFD3DFFF">
<path d="M 406.000 464.077 C 406.000 465.219 404.685 467.469 403.077 469.077 L 400.154 472.000 368.045 472.000 C 331.894 472.000 330.276 472.256 327.325 478.445 C 325.731 481.787 325.731 482.213 327.325 485.555 C 330.499 492.211 327.828 492.000 409.000 492.000 C 490.333 492.000 487.763 492.204 490.549 485.536 C 491.853 482.417 491.853 481.583 490.549 478.464 C 488.747 474.151 484.224 472.000 476.955 472.000 C 472.642 472.000 471.391 471.545 468.923 469.077 C 467.315 467.469 466.000 465.219 466.000 464.077 C 466.000 462.113 465.457 462.000 456.000 462.000 C 446.543 462.000 446.000 462.113 446.000 464.077 C 446.000 465.219 444.685 467.469 443.077 469.077 C 440.784 471.369 439.258 472.000 436.000 472.000 C 432.742 472.000 431.216 471.369 428.923 469.077 C 427.315 467.469 426.000 465.219 426.000 464.077 C 426.000 462.113 425.457 462.000 416.000 462.000 C 406.543 462.000 406.000 462.113 406.000 464.077 "/></g>
<g fill="#CFD3DFFF" stroke="#CFD3DFFF">
<path d="M 249.455 385.455 C 246.101 388.808 246.082 394.822 249.413 398.694 L 251.827 401.500 300.808 401.500 C 348.383 401.500 349.854 401.443 352.010 399.500 C 355.297 396.538 356.245 393.272 354.953 389.359 C 352.782 382.781 354.652 383.000 300.732 383.000 L 251.909 383.000 249.455 385.455 "/></g>
<g fill="#000000FF" stroke="#000000FF">
<path d="M 439.383 204.583 C 434.240 207.120 432.225 215.021 435.521 219.726 C 436.357 220.920 442.800 225.070 449.838 228.949 C 464.911 237.254 467.526 237.674 472.600 232.600 C 477.024 228.176 477.251 223.411 473.250 219.000 C 470.117 215.547 447.532 202.999 444.500 203.027 C 443.400 203.037 441.097 203.738 439.383 204.583 "/></g>
<g fill="#000000FF" stroke="#000000FF">
<path d="M 198.656 72.133 C 196.042 73.652 193.914 79.319 194.624 82.869 C 195.511 87.304 197.669 89.108 210.794 96.386 C 224.657 104.072 228.109 104.662 233.107 100.195 C 235.583 97.983 236.268 96.541 236.352 93.369 C 236.410 91.156 235.738 88.256 234.859 86.923 C 233.981 85.590 227.794 81.463 221.110 77.750 C 211.380 72.345 208.116 71.006 204.729 71.030 C 202.403 71.047 199.670 71.543 198.656 72.133 "/></g>
<g fill="#000000FF" stroke="#000000FF">
<path d="M 401.297 14.505 C 398.728 16.304 386.263 38.434 385.407 42.715 C 383.554 51.979 396.355 58.587 402.808 51.698 C 403.940 50.489 407.679 44.550 411.117 38.500 C 416.321 29.341 417.378 26.691 417.433 22.663 C 417.490 18.560 417.074 17.461 414.694 15.413 C 411.397 12.578 404.697 12.123 401.297 14.505 "/></g>
<g fill="#000000FF" stroke="#000000FF">
<path d="M 286.589 3.077 C 283.134 7.183 283.259 10.549 287.405 24.949 C 291.494 39.154 292.172 40.521 296.151 42.578 C 302.722 45.976 311.000 41.268 311.000 34.133 C 311.000 32.167 309.331 24.695 307.292 17.529 C 302.860 1.956 301.392 0.000 294.134 -0.000 C 289.827 -0.000 288.839 0.403 286.589 3.077 "/></g>
<g fill="#000000FF" stroke="#000000FF">
<path d="M 463.085 105.488 C 449.617 109.441 447.586 110.419 446.110 113.657 C 442.804 120.913 447.210 129.000 454.469 129.000 C 459.880 129.000 483.144 122.100 485.735 119.727 C 490.242 115.598 489.543 106.896 484.434 103.549 C 480.962 101.274 475.861 101.737 463.085 105.488 "/></g>
<g fill="#CFD3DFFF" stroke="#CFD3DFFF">
<path d="M 419.455 385.455 C 416.101 388.808 416.082 394.822 419.413 398.694 L 421.827 401.500 435.808 401.500 C 448.383 401.500 450.013 401.299 452.010 399.500 C 455.297 396.538 456.245 393.272 454.953 389.359 C 453.058 383.617 451.193 383.000 435.732 383.000 C 422.389 383.000 421.824 383.085 419.455 385.455 "/></g>
<g fill="#000000FF" stroke="#000000FF">
<path d="M 428.545 454.728 C 426.195 457.077 425.904 457.996 426.440 461.353 C 427.335 466.945 428.694 468.974 432.657 470.630 C 435.817 471.950 436.508 471.918 439.827 470.296 C 443.915 468.297 446.941 463.141 446.225 459.395 C 444.831 452.105 434.021 449.252 428.545 454.728 "/></g>
</svg>
