<?xml version="1.0" encoding="utf-8"?>
<!DOCTYPE svg PUBLIC "-//W3C//DTD SVG 20010904//EN" "http://www.w3.org/TR/2001/REC-SVG-20010904/DTD/svg10.dtd">
<svg version="1.0" xmlns="http://www.w3.org/2000/svg" width="512pt" height="512pt" viewBox="0 0 512 512" style="" preserveAspectRatio="xMidYMid meet">
<g fill="#C5D3DEFF" stroke="#C5D3DEFF">
<path d="M 322.460 89.377 C 293.700 94.100 267.602 111.001 251.717 135.190 C 245.157 145.178 243.010 147.000 237.797 147.000 C 234.608 147.000 233.041 146.095 227.431 141.011 C 204.003 119.779 170.410 120.365 148.391 142.389 C 137.596 153.187 133.357 162.620 132.039 178.772 C 131.048 190.921 129.873 193.168 123.292 195.503 C 100.816 203.477 84.923 217.123 75.540 236.500 C 70.832 246.222 68.988 253.765 68.314 266.046 C 66.227 304.120 91.644 337.195 129.390 345.522 C 138.061 347.435 156.794 347.150 164.556 344.986 C 168.584 343.863 168.633 343.791 171.717 334.428 L 174.822 325.000 157.048 325.000 C 139.287 325.000 139.271 324.998 136.700 322.427 C 131.838 317.565 132.129 315.408 139.831 299.220 C 161.887 252.857 178.942 219.102 180.816 218.098 C 182.214 217.350 196.368 217.000 225.212 217.000 C 272.292 217.000 270.759 216.786 273.676 223.767 C 275.101 227.179 275.023 227.515 270.718 236.386 C 268.286 241.399 262.263 253.201 257.333 262.614 L 248.371 279.728 257.149 279.227 L 265.927 278.727 269.463 282.263 C 272.190 284.990 273.000 286.617 273.000 289.365 C 273.000 293.459 273.425 292.921 251.216 316.945 C 234.026 335.540 234.562 333.644 245.000 338.966 C 254.604 343.863 263.602 346.149 275.552 346.727 C 289.379 347.396 300.198 345.394 311.613 340.053 C 322.141 335.128 325.889 332.518 334.559 324.074 C 345.382 313.533 348.466 313.478 358.686 323.648 C 375.402 340.282 394.571 347.767 417.890 346.764 C 430.997 346.200 440.813 343.480 451.771 337.373 C 489.538 316.328 502.693 267.858 480.778 230.500 C 475.382 221.302 462.489 208.479 453.241 203.113 C 449.248 200.796 445.359 197.911 444.599 196.700 C 443.839 195.490 442.908 190.675 442.530 186.000 C 441.710 175.861 439.783 166.178 437.021 158.320 C 434.189 150.261 434.394 146.760 437.937 142.725 L 440.874 139.380 437.687 133.868 C 430.898 122.127 427.210 118.233 425.500 121.000 C 424.691 122.309 417.408 122.289 414.945 120.970 C 412.650 119.742 410.000 114.934 410.000 112.000 C 410.000 110.845 410.663 108.618 411.474 107.051 C 412.939 104.218 412.916 104.177 407.724 100.274 C 404.851 98.114 400.411 95.130 397.858 93.642 L 393.217 90.937 390.185 93.969 C 386.531 97.622 383.222 97.846 375.846 94.939 C 361.069 89.115 338.424 86.755 322.460 89.377 "/></g>
<g fill="#000000FF" stroke="#000000FF">
<path d="M 181.500 1.973 C 139.544 11.071 107.696 38.743 93.004 78.863 L 90.307 86.225 77.668 86.063 C 62.403 85.866 55.216 87.388 42.500 93.512 C 22.109 103.333 7.029 121.976 1.610 144.064 C -0.527 152.777 -0.527 171.223 1.610 179.936 C 7.427 203.645 24.395 223.410 46.842 232.620 C 49.954 233.896 52.428 235.517 52.339 236.221 C 52.251 236.924 51.165 241.100 49.926 245.500 C 46.941 256.103 46.597 281.637 49.294 292.353 C 56.854 322.387 78.633 348.422 105.905 360.027 C 119.620 365.864 126.916 367.284 144.539 367.549 L 160.578 367.791 155.789 382.119 C 153.155 390.000 151.000 397.662 151.000 399.147 C 151.000 405.302 159.094 410.436 165.162 408.129 C 166.614 407.576 179.885 394.120 194.651 378.225 L 221.500 349.326 225.827 352.264 C 232.556 356.833 245.655 362.616 255.000 365.143 C 262.313 367.121 265.804 367.434 280.000 367.387 C 293.653 367.341 297.851 366.961 304.329 365.187 C 318.024 361.434 332.205 354.201 342.086 345.928 L 346.901 341.896 352.254 346.256 C 368.605 359.574 387.328 366.628 409.202 367.711 C 449.032 369.682 484.751 348.822 502.028 313.500 C 510.100 296.998 511.501 290.559 511.495 270.000 C 511.490 256.000 511.112 251.100 509.602 245.500 C 506.884 235.418 502.064 224.500 496.556 215.946 C 490.959 207.255 476.848 193.015 468.863 188.000 L 463.290 184.500 462.655 177.500 C 461.909 169.274 459.017 156.793 455.966 148.640 C 453.690 142.556 449.761 139.011 445.285 139.004 C 442.452 138.999 436.235 144.421 435.773 147.298 C 435.394 149.665 435.475 150.026 439.370 163.274 C 440.788 168.100 442.445 177.100 443.052 183.274 C 443.658 189.448 444.784 195.480 445.553 196.679 C 446.323 197.877 449.714 200.329 453.088 202.128 C 459.977 205.800 472.112 216.661 477.450 223.932 C 493.684 246.047 496.705 277.799 484.963 302.893 C 471.470 331.728 441.997 349.473 410.541 347.700 C 398.366 347.014 391.041 345.165 380.500 340.117 C 371.277 335.700 362.547 329.341 355.738 322.079 C 351.558 317.622 350.488 317.000 346.995 317.000 C 343.408 317.000 342.333 317.680 336.140 323.861 C 327.956 332.028 322.485 335.925 312.744 340.525 C 300.984 346.079 294.237 347.481 279.500 347.430 C 270.246 347.399 264.627 346.873 260.000 345.604 C 252.525 343.555 240.591 338.205 237.149 335.361 L 234.798 333.418 249.649 317.417 C 272.690 292.592 272.000 293.456 272.000 289.420 C 272.000 286.784 271.214 285.061 269.006 282.852 C 266.062 279.908 265.859 279.863 257.004 280.179 C 252.022 280.356 247.996 280.093 247.998 279.590 C 247.999 279.089 253.696 267.839 260.658 254.590 C 274.772 227.730 275.544 225.090 270.706 220.250 L 267.957 217.500 227.047 217.208 C 193.415 216.968 185.530 217.170 182.727 218.341 C 179.816 219.557 178.583 221.278 174.276 230.132 C 141.720 297.065 134.000 313.433 134.000 315.521 C 134.000 316.867 135.312 319.438 136.916 321.234 L 139.831 324.500 157.416 324.814 C 167.087 324.987 175.000 325.436 175.000 325.812 C 175.000 326.188 173.632 330.601 171.960 335.619 L 168.920 344.744 162.710 346.122 C 153.893 348.078 134.110 347.860 126.000 345.716 C 122.425 344.771 115.450 341.997 110.500 339.552 C 94.599 331.696 83.304 320.401 75.448 304.500 C 69.073 291.595 67.544 284.922 67.544 270.000 C 67.544 255.751 69.026 248.792 74.554 237.089 C 83.852 217.402 97.835 204.482 118.508 196.471 C 129.300 192.290 131.000 190.136 131.000 180.648 C 131.000 156.102 149.343 132.834 173.693 126.492 C 180.963 124.598 195.870 124.590 202.955 126.475 C 211.534 128.758 220.537 133.677 226.871 139.541 C 233.295 145.488 236.588 147.163 240.143 146.290 C 243.673 145.423 244.709 144.338 250.734 135.189 C 263.212 116.240 279.348 103.118 300.500 94.718 C 313.955 89.375 323.259 87.684 339.000 87.721 C 353.500 87.755 361.584 89.089 373.637 93.437 C 383.464 96.982 386.382 96.818 390.727 92.473 C 393.846 89.354 394.184 88.523 393.658 85.277 C 393.330 83.259 392.036 80.608 390.781 79.386 C 387.908 76.589 373.751 71.605 362.275 69.350 C 352.666 67.461 326.985 67.036 319.081 68.634 L 314.661 69.528 311.226 63.014 C 299.200 40.212 277.003 19.690 253.292 9.452 C 237.574 2.665 228.483 0.829 208.500 0.404 C 193.389 0.083 189.056 0.335 181.500 1.973 M 232.139 23.330 C 243.999 26.895 250.934 30.105 260.417 36.421 C 273.330 45.022 286.569 59.317 292.565 71.134 L 294.916 75.769 285.350 80.394 C 280.088 82.937 272.597 87.152 268.703 89.759 C 259.987 95.596 246.512 108.214 240.607 116.069 L 236.194 121.940 233.847 120.108 C 229.347 116.596 220.269 111.972 213.052 109.518 C 176.942 97.236 136.679 113.660 119.944 147.500 C 115.833 155.813 112.000 168.904 112.000 174.630 C 112.000 177.769 111.620 178.115 104.628 181.345 C 90.614 187.820 75.835 199.758 67.500 211.335 C 62.848 217.796 62.805 217.798 51.000 212.235 C 37.128 205.697 25.631 191.569 21.475 175.955 C 19.613 168.955 19.613 155.045 21.475 148.045 C 26.699 128.416 42.416 112.699 62.045 107.475 C 69.080 105.603 82.979 105.615 90.000 107.500 C 102.848 110.949 105.697 109.045 109.464 94.500 C 119.104 57.268 147.517 30.078 185.677 21.569 C 190.651 20.460 196.701 20.141 208.000 20.391 C 221.161 20.682 224.804 21.126 232.139 23.330 M 234.474 263.000 C 227.031 277.162 221.057 289.716 221.036 291.234 C 221.015 292.881 222.161 295.267 223.919 297.234 C 226.621 300.258 227.298 300.500 233.045 300.500 L 239.252 300.500 212.505 329.295 C 197.794 345.133 185.593 357.926 185.392 357.726 C 185.192 357.525 187.972 348.617 191.571 337.930 C 198.271 318.036 199.081 313.888 197.020 310.036 C 194.865 306.012 190.259 305.000 174.085 305.000 L 159.106 305.000 174.645 273.250 C 183.191 255.788 190.583 240.480 191.073 239.234 L 191.962 236.969 219.918 237.234 L 247.874 237.500 234.474 263.000 "/></g>
<g fill="#8AA8BDFF" stroke="#8AA8BDFF">
<path d="M 194.058 21.106 C 179.199 22.859 163.587 28.538 151.308 36.657 C 143.500 41.819 130.747 54.102 125.359 61.648 C 119.303 70.131 112.446 85.004 110.140 94.662 C 107.917 103.968 106.841 106.298 103.770 108.449 C 100.968 110.411 96.859 110.402 90.500 108.419 C 83.091 106.109 68.109 106.338 60.000 108.886 C 36.181 116.368 20.867 137.129 20.821 162.000 C 20.782 183.428 32.361 202.234 51.246 211.412 C 62.497 216.881 62.923 216.870 66.856 211.034 C 74.226 200.095 92.954 185.092 105.689 179.923 C 110.209 178.089 111.001 177.376 111.007 175.134 C 111.011 173.685 111.928 168.686 113.046 164.024 C 119.805 135.827 141.488 114.091 170.063 106.865 C 176.989 105.113 180.423 104.849 191.408 105.224 C 206.862 105.751 216.525 108.493 228.118 115.640 C 232.007 118.038 235.559 120.000 236.010 120.000 C 236.461 120.000 238.419 117.835 240.361 115.190 C 245.606 108.044 259.576 95.022 268.343 89.106 C 274.689 84.824 288.887 77.204 293.198 75.767 C 295.531 74.990 285.253 60.263 275.500 50.408 C 256.651 31.361 236.520 22.236 210.000 20.716 C 205.325 20.448 198.151 20.623 194.058 21.106 "/></g>
<g fill="#FFA96BFF" stroke="#FFA96BFF">
<path d="M 190.066 243.250 C 188.499 246.688 181.116 261.988 173.660 277.250 L 160.104 305.000 176.629 305.000 L 193.154 305.000 196.077 307.923 C 200.220 312.066 199.919 315.091 193.361 335.205 C 190.260 344.717 187.672 353.067 187.611 353.759 C 187.550 354.451 198.657 342.976 212.293 328.259 L 237.085 301.500 231.921 301.194 C 225.339 300.803 222.318 298.793 220.825 293.812 C 219.498 289.380 217.864 293.095 238.663 253.250 L 247.145 237.000 220.031 237.000 L 192.916 237.000 190.066 243.250 "/></g>
<g fill="#000000FF" stroke="#000000FF">
<path d="M 469.400 393.895 C 464.874 397.255 439.060 423.317 436.638 426.973 C 433.885 431.128 434.527 435.727 438.400 439.600 C 442.031 443.231 446.122 444.018 450.316 441.893 C 453.438 440.310 483.854 410.031 485.568 406.800 C 489.538 399.313 484.609 391.000 476.200 391.000 C 474.566 391.000 471.597 392.264 469.400 393.895 "/></g>
<g fill="#000000FF" stroke="#000000FF">
<path d="M 212.054 409.478 L 193.500 427.957 193.500 432.560 C 193.500 436.497 193.974 437.587 196.766 440.082 C 200.418 443.345 204.483 443.851 208.800 441.579 C 210.285 440.797 219.038 432.554 228.250 423.262 C 244.638 406.732 245.000 406.275 245.000 402.118 C 245.000 399.781 244.537 397.003 243.970 395.945 C 242.573 393.334 237.798 391.000 233.854 391.000 C 230.980 391.000 228.485 393.114 212.054 409.478 "/></g>
<g fill="#000000FF" stroke="#000000FF">
<path d="M 333.054 409.478 L 314.500 427.957 314.500 432.560 C 314.500 436.497 314.974 437.587 317.766 440.082 C 321.254 443.199 325.444 443.855 329.316 441.893 C 332.438 440.310 362.854 410.031 364.568 406.800 C 368.619 399.161 363.601 391.000 354.854 391.000 C 351.980 391.000 349.485 393.114 333.054 409.478 "/></g>
<g fill="#000000FF" stroke="#000000FF">
<path d="M 92.237 408.250 C 82.671 417.738 74.175 426.770 73.358 428.323 C 69.178 436.268 78.340 445.587 86.860 442.058 C 88.415 441.414 97.408 433.121 106.844 423.629 C 123.655 406.718 124.000 406.285 124.000 402.119 C 124.000 399.781 123.537 397.003 122.970 395.945 C 121.575 393.336 116.799 391.000 112.864 391.000 C 110.015 391.000 107.556 393.056 92.237 408.250 "/></g>
<g fill="#000000FF" stroke="#000000FF">
<path d="M 363.845 478.750 C 345.940 496.689 344.099 499.272 345.432 504.586 C 346.613 509.291 350.356 512.000 355.675 512.000 L 360.440 512.000 378.720 493.720 C 396.754 475.686 397.000 475.382 397.000 471.143 C 397.000 467.727 396.401 466.247 394.077 463.923 C 391.659 461.505 390.325 461.000 386.358 461.000 L 381.562 461.000 363.845 478.750 "/></g>
<g fill="#000000FF" stroke="#000000FF">
<path d="M 242.845 478.750 C 224.940 496.689 223.099 499.272 224.432 504.586 C 225.613 509.291 229.356 512.000 234.675 512.000 L 239.440 512.000 257.720 493.720 C 275.754 475.686 276.000 475.382 276.000 471.143 C 276.000 467.727 275.401 466.247 273.077 463.923 C 270.659 461.505 269.325 461.000 265.358 461.000 L 260.562 461.000 242.845 478.750 "/></g>
<g fill="#000000FF" stroke="#000000FF">
<path d="M 122.326 478.202 C 103.685 496.733 101.956 499.307 103.999 505.497 C 105.520 510.104 108.437 512.000 114.008 512.000 L 118.571 512.000 136.785 493.689 C 154.483 475.897 155.000 475.260 155.000 471.265 C 155.000 468.301 154.278 466.295 152.411 464.077 C 150.144 461.382 149.189 461.000 144.726 461.000 L 139.630 461.000 122.326 478.202 "/></g>
<g fill="#000000FF" stroke="#000000FF">
<path d="M 415.225 102.671 C 413.725 103.274 411.000 109.402 411.000 112.172 C 411.000 115.848 413.887 119.808 417.416 120.972 C 420.347 121.940 421.546 121.801 425.389 120.051 C 429.187 118.321 430.017 117.428 430.570 114.479 C 431.346 110.344 429.640 105.562 426.640 103.460 C 424.643 102.062 417.900 101.595 415.225 102.671 "/></g>
</svg>
