<?xml version="1.0" encoding="UTF-8"?>
<!DOCTYPE svg PUBLIC "-//W3C//DTD SVG 1.1//EN" "http://www.w3.org/Graphics/SVG/1.1/DTD/svg11.dtd">
<svg xmlns="http://www.w3.org/2000/svg" version="1.1" width="512px" height="512px" style="shape-rendering:geometricPrecision; text-rendering:geometricPrecision; image-rendering:optimizeQuality; fill-rule:evenodd; clip-rule:evenodd" xmlns:xlink="http://www.w3.org/1999/xlink">
<g><path style="opacity:0.959" fill="#020101" d="M 355.5,102.5 C 352.555,103.468 349.555,103.634 346.5,103C 311.235,61.5419 267.568,48.8752 215.5,65C 169.58,84.7574 144.913,119.591 141.5,169.5C 141.616,177.524 142.116,185.524 143,193.5C 152.732,231.696 167.732,267.696 188,301.5C 208.35,336.212 230.683,369.545 255,401.5C 290.81,355.959 321.477,306.959 347,254.5C 355.253,236.408 361.92,217.741 367,198.5C 368.493,189.219 369.493,179.886 370,170.5C 371.159,167.507 373.325,165.84 376.5,165.5C 381.681,165.85 384.348,168.683 384.5,174C 383.239,194.88 378.739,215.046 371,234.5C 353.316,278.547 330.983,319.88 304,358.5C 303.517,359.448 303.351,360.448 303.5,361.5C 326.295,363.71 347.962,369.876 368.5,380C 379,385.167 386.833,393 392,403.5C 395.15,413.72 393.484,423.054 387,431.5C 376.694,442.123 364.528,449.957 350.5,455C 319.646,465.003 287.98,469.836 255.5,469.5C 221.479,469.903 188.479,464.403 156.5,453C 154.044,450.489 153.377,447.656 154.5,444.5C 155.822,441.53 158.156,440.197 161.5,440.5C 203.521,454.035 246.521,458.202 290.5,453C 312.296,451.301 333.296,446.301 353.5,438C 362.131,434.438 369.631,429.271 376,422.5C 380.667,416.5 380.667,410.5 376,404.5C 371.622,400.065 366.788,396.232 361.5,393C 339.747,382.145 316.747,376.145 292.5,375C 282.455,388.922 272.289,402.756 262,416.5C 258.552,420.791 254.552,421.458 250,418.5C 239.5,404.167 229,389.833 218.5,375.5C 192.169,376.107 167.502,382.941 144.5,396C 127.835,406.818 127.335,418.318 143,430.5C 143.602,433.221 143.435,435.887 142.5,438.5C 139.609,441.624 136.275,442.124 132.5,440C 115.144,426.213 112.977,410.379 126,392.5C 141.9,379.294 160.066,370.461 180.5,366C 189.504,364.166 198.504,362.333 207.5,360.5C 181.192,321.895 159.026,280.895 141,237.5C 132.613,216.785 127.779,195.285 126.5,173C 128.563,121.84 151.563,83.5071 195.5,58C 248.037,33.6979 296.704,39.6979 341.5,76C 346.7,80.8653 351.533,86.0319 356,91.5C 357.483,94.7024 357.817,98.0357 357,101.5C 356.617,102.056 356.117,102.389 355.5,102.5 Z"/></g>
<g><path style="opacity:1" fill="#e3374e" d="M 355.5,102.5 C 357.597,106.372 359.931,110.039 362.5,113.5C 358.829,116.293 357.662,119.96 359,124.5C 362.796,132.555 365.796,140.889 368,149.5C 370.48,150.812 372.98,151.812 375.5,152.5C 376.295,156.785 376.628,161.119 376.5,165.5C 373.325,165.84 371.159,167.507 370,170.5C 369.493,179.886 368.493,189.219 367,198.5C 361.92,217.741 355.253,236.408 347,254.5C 321.477,306.959 290.81,355.959 255,401.5C 230.683,369.545 208.35,336.212 188,301.5C 167.732,267.696 152.732,231.696 143,193.5C 142.116,185.524 141.616,177.524 141.5,169.5C 144.913,119.591 169.58,84.7574 215.5,65C 267.568,48.8752 311.235,61.5419 346.5,103C 349.555,103.634 352.555,103.468 355.5,102.5 Z M 252.5,131.5 C 278.784,132.786 293.45,146.452 296.5,172.5C 293.893,196.941 280.393,210.607 256,213.5C 231.071,211.071 217.237,197.404 214.5,172.5C 216.884,149.121 229.551,135.454 252.5,131.5 Z"/></g>
<g><path style="opacity:0.946" fill="#020000" d="M 362.5,113.5 C 366.594,112.705 369.761,114.038 372,117.5C 376.241,125.889 379.074,134.722 380.5,144C 380.984,148.211 379.317,151.044 375.5,152.5C 372.98,151.812 370.48,150.812 368,149.5C 365.796,140.889 362.796,132.555 359,124.5C 357.662,119.96 358.829,116.293 362.5,113.5 Z"/></g>
<g><path style="opacity:0.965" fill="#020000" d="M 245.5,117.5 C 278.996,115.518 300.496,130.518 310,162.5C 312.906,193.886 299.739,215.053 270.5,226C 242.074,231.76 220.574,222.26 206,197.5C 194.647,168.743 201.147,144.91 225.5,126C 231.92,122.282 238.586,119.449 245.5,117.5 Z M 252.5,131.5 C 229.551,135.454 216.884,149.121 214.5,172.5C 217.237,197.404 231.071,211.071 256,213.5C 280.393,210.607 293.893,196.941 296.5,172.5C 293.45,146.452 278.784,132.786 252.5,131.5 Z"/></g>
<g><path style="opacity:1" fill="#cae3fb" d="M 154.5,444.5 C 150.217,443.025 146.217,441.025 142.5,438.5C 143.435,435.887 143.602,433.221 143,430.5C 127.335,418.318 127.835,406.818 144.5,396C 167.502,382.941 192.169,376.107 218.5,375.5C 229,389.833 239.5,404.167 250,418.5C 254.552,421.458 258.552,420.791 262,416.5C 272.289,402.756 282.455,388.922 292.5,375C 316.747,376.145 339.747,382.145 361.5,393C 366.788,396.232 371.622,400.065 376,404.5C 380.667,410.5 380.667,416.5 376,422.5C 369.631,429.271 362.131,434.438 353.5,438C 333.296,446.301 312.296,451.301 290.5,453C 246.521,458.202 203.521,454.035 161.5,440.5C 158.156,440.197 155.822,441.53 154.5,444.5 Z"/></g>
</svg>
