<?xml version="1.0" encoding="utf-8"?>
<!DOCTYPE svg PUBLIC "-//W3C//DTD SVG 20010904//EN" "http://www.w3.org/TR/2001/REC-SVG-20010904/DTD/svg10.dtd">
<svg version="1.0" xmlns="http://www.w3.org/2000/svg" width="512pt" height="512pt" viewBox="0 0 512 512" style="" preserveAspectRatio="xMidYMid meet">
<g fill="#000000FF" stroke="#000000FF">
<path d="M 355.941 62.986 C 341.389 64.787 327.839 71.396 316.900 82.030 C 310.721 88.036 309.956 88.488 307.342 87.672 C 305.779 87.184 298.650 86.741 291.500 86.688 C 280.893 86.610 277.065 86.999 270.709 88.804 C 261.827 91.326 250.283 96.850 244.706 101.247 L 240.912 104.238 233.206 100.729 C 215.086 92.478 197.836 88.613 178.836 88.547 C 165.621 88.502 165.084 88.582 162.458 91.000 C 157.334 95.718 155.589 103.370 158.398 108.802 C 160.208 112.302 162.373 114.179 168.500 117.559 C 184.482 126.376 196.136 137.614 204.058 151.848 C 208.471 159.777 215.155 161.207 220.771 155.424 C 223.824 152.280 224.181 151.383 223.725 147.987 C 222.954 142.240 213.083 127.813 203.292 118.123 L 194.827 109.745 198.664 110.441 C 205.960 111.764 223.529 118.120 231.000 122.140 C 258.572 136.975 280.956 162.796 291.359 191.766 C 296.109 204.994 298.290 218.086 298.310 233.500 C 298.338 255.128 294.268 271.982 284.408 291.073 C 279.472 300.630 268.968 315.691 266.606 316.598 C 265.869 316.880 263.212 315.725 260.701 314.031 C 237.970 298.690 207.179 298.342 182.306 313.145 C 174.958 317.519 163.267 329.043 159.106 336.015 L 155.814 341.529 148.323 341.151 C 139.911 340.726 131.107 342.168 124.306 345.083 L 119.740 347.040 113.177 343.433 C 102.429 337.526 94.032 331.109 84.500 321.522 C 73.701 310.660 66.552 300.516 59.991 286.743 C 55.436 277.181 50.000 261.010 50.000 257.023 C 50.000 255.885 53.066 258.331 58.750 264.005 C 80.904 286.120 109.466 296.525 140.753 293.879 C 174.671 291.011 205.907 270.463 221.875 240.515 C 224.926 234.793 224.621 231.540 220.649 227.450 C 214.558 221.179 208.753 223.124 202.775 233.441 C 197.398 242.721 182.784 257.335 173.280 262.937 C 169.309 265.277 161.884 268.568 156.780 270.250 C 144.711 274.227 126.534 275.209 114.510 272.534 C 89.236 266.911 68.479 250.695 56.672 227.349 C 55.239 224.515 52.881 221.265 51.432 220.125 C 45.402 215.382 36.390 216.514 30.963 222.695 L 27.740 226.366 28.296 240.933 C 29.682 277.261 44.340 310.260 70.723 336.450 C 79.040 344.706 90.366 353.669 97.574 357.697 C 102.034 360.190 102.856 361.353 100.978 362.514 C 99.398 363.490 94.411 373.876 92.581 380.000 C 90.708 386.269 90.366 400.208 91.916 407.123 C 93.184 412.783 96.019 419.485 99.428 424.887 L 102.025 429.000 75.936 429.000 L 49.846 429.000 46.923 431.923 C 42.845 436.001 42.843 441.674 46.918 446.234 L 49.836 449.500 200.668 449.788 C 300.840 449.980 354.187 449.728 359.500 449.038 C 390.352 445.032 407.105 412.648 392.815 384.638 C 390.121 379.357 382.542 371.402 377.249 368.300 C 367.898 362.820 353.066 360.400 344.277 362.921 C 341.196 363.804 340.774 363.548 333.783 356.560 C 322.481 345.261 312.964 341.143 295.723 340.095 L 285.946 339.500 283.545 335.466 L 281.144 331.431 287.145 323.966 C 297.580 310.984 305.687 295.957 311.626 278.590 C 314.287 270.811 318.000 252.678 318.000 247.464 L 318.000 244.030 412.587 243.765 L 507.174 243.500 509.587 240.694 C 512.924 236.814 512.925 230.188 509.589 226.306 C 507.180 223.502 507.165 223.500 492.589 223.176 C 484.565 222.998 478.000 222.631 478.000 222.360 C 478.000 222.088 479.075 220.434 480.388 218.683 C 492.924 201.973 494.527 176.401 484.278 156.603 C 479.689 147.739 468.914 136.778 460.314 132.225 C 454.031 128.900 440.896 125.000 435.978 125.000 C 433.447 125.000 433.234 124.650 432.629 119.499 C 431.838 112.768 428.022 102.384 423.839 95.579 C 409.439 72.154 383.291 59.602 355.941 62.986 M 231.500 322.511 C 247.405 325.865 261.727 336.948 269.587 351.984 C 274.728 361.817 276.482 362.796 285.803 361.037 C 303.123 357.769 318.178 364.551 325.447 378.896 C 329.871 387.626 334.491 388.954 344.499 384.372 C 352.003 380.937 359.881 381.402 366.817 385.690 C 379.867 393.759 381.614 413.108 370.196 423.132 C 362.422 429.959 371.151 429.500 249.000 429.500 L 138.500 429.500 132.500 427.090 C 124.490 423.874 116.017 415.335 113.101 407.540 C 108.459 395.135 111.146 381.378 120.131 371.548 C 129.333 361.478 142.535 357.688 155.390 361.425 C 164.542 364.085 167.161 362.534 172.598 351.229 C 177.567 340.898 186.065 332.539 197.117 327.112 C 209.168 321.193 219.009 319.877 231.500 322.511 M 385.386 87.302 C 402.964 95.690 412.170 110.003 413.681 131.290 C 414.199 138.591 414.738 140.745 416.578 142.879 C 418.719 145.362 419.269 145.485 427.042 145.224 C 445.866 144.589 459.608 152.355 467.307 167.979 C 470.256 173.962 470.500 175.227 470.500 184.500 C 470.500 193.773 470.256 195.038 467.307 201.021 C 463.795 208.149 457.685 214.919 451.475 218.564 C 442.398 223.892 440.291 224.038 376.444 223.758 L 317.500 223.500 317.240 220.500 C 315.159 196.456 304.905 169.147 290.312 148.787 C 284.122 140.151 271.714 126.946 263.529 120.285 L 258.559 116.239 262.029 114.112 C 274.915 106.214 292.100 104.310 308.408 108.974 C 316.367 111.250 319.417 110.665 322.809 106.213 C 327.923 99.502 333.470 93.773 337.613 90.922 C 351.155 81.605 370.393 80.147 385.386 87.302 "/></g>
<g fill="#FFCE69FF" stroke="#FFCE69FF">
<path d="M 205.551 119.179 C 213.449 127.434 218.721 134.561 222.995 142.765 C 225.786 148.122 225.126 152.875 221.122 156.244 C 218.804 158.195 218.465 159.025 219.189 160.982 C 219.989 163.145 222.051 171.475 223.443 178.170 C 223.848 180.121 224.799 181.017 226.972 181.494 C 231.054 182.390 235.000 187.309 235.000 191.500 C 235.000 195.691 231.054 200.610 226.972 201.506 C 224.799 201.983 223.848 202.879 223.443 204.830 C 222.051 211.525 219.989 219.855 219.189 222.018 C 218.465 223.975 218.804 224.805 221.122 226.756 C 225.378 230.338 225.805 234.851 222.492 241.241 C 212.312 260.869 190.824 279.890 169.509 288.141 C 155.605 293.523 144.634 295.259 128.000 294.711 C 112.143 294.189 103.770 292.460 90.654 287.000 C 80.239 282.664 67.354 273.874 58.407 265.000 C 51.622 258.271 50.918 257.808 51.557 260.500 C 55.140 275.617 63.028 293.139 71.917 305.728 C 81.635 319.491 98.254 334.307 113.013 342.367 L 119.527 345.923 126.513 343.315 C 132.168 341.203 135.587 340.650 144.445 340.413 L 155.390 340.119 159.268 334.310 C 181.154 301.527 224.939 291.696 258.982 311.920 C 262.759 314.164 266.061 316.000 266.319 316.000 C 267.299 316.000 277.915 301.203 281.745 294.500 C 287.325 284.734 292.444 271.278 295.060 259.500 C 297.977 246.373 298.261 223.727 295.673 210.725 C 285.976 162.012 248.725 123.185 200.544 111.571 C 197.917 110.938 198.474 111.783 205.551 119.179 "/></g>
<g fill="#000000FF" stroke="#000000FF">
<path d="M 3.077 431.589 C 0.432 433.814 0.000 434.848 0.000 438.953 C -0.000 442.726 0.530 444.257 2.527 446.254 C 6.727 450.454 13.251 450.476 17.423 446.304 C 19.473 444.255 20.000 442.750 20.000 438.953 C 20.000 434.848 19.568 433.814 16.923 431.589 C 14.780 429.786 12.679 429.000 10.000 429.000 C 7.321 429.000 5.220 429.786 3.077 431.589 "/></g>
<g fill="#000000FF" stroke="#000000FF">
<path d="M 220.000 182.274 C 214.523 185.021 212.809 193.767 216.850 198.343 C 219.640 201.502 221.758 202.161 225.656 201.085 C 234.209 198.723 236.888 190.735 231.077 184.923 C 229.469 183.315 227.481 182.000 226.659 182.000 C 225.836 182.000 224.564 181.780 223.832 181.510 C 223.099 181.241 221.375 181.584 220.000 182.274 "/></g>
</svg>
