<?xml version="1.0" encoding="utf-8"?>
<!DOCTYPE svg PUBLIC "-//W3C//DTD SVG 20010904//EN" "http://www.w3.org/TR/2001/REC-SVG-20010904/DTD/svg10.dtd">
<svg version="1.0" xmlns="http://www.w3.org/2000/svg" width="512pt" height="512pt" viewBox="0 0 512 512" style="" preserveAspectRatio="xMidYMid meet">
<g fill="#A0C8FFFF" stroke="#A0C8FFFF">
<path d="M 248.919 164.948 C 225.867 169.162 205.473 179.749 189.757 195.661 C 182.092 203.421 174.065 213.569 174.064 215.500 C 174.064 216.050 176.869 218.390 180.299 220.701 C 188.035 225.912 198.819 236.526 204.631 244.648 C 209.953 252.086 218.000 268.741 218.000 272.319 C 218.000 278.499 213.392 283.000 207.065 283.000 C 203.104 283.000 198.736 278.846 196.551 273.000 C 193.413 264.603 186.642 254.526 179.013 246.894 C 158.523 226.398 130.134 218.951 101.138 226.464 C 80.283 231.868 63.447 245.801 54.008 265.467 C 47.346 279.347 45.508 287.548 45.596 303.000 C 45.673 316.581 47.196 324.774 51.580 335.189 C 60.920 357.382 78.484 372.572 102.500 379.229 C 110.434 381.429 111.283 381.451 205.146 381.973 C 295.806 382.478 299.878 382.579 301.858 384.371 C 302.995 385.400 304.427 387.762 305.040 389.621 L 306.155 393.000 315.578 393.000 C 324.433 393.000 325.000 392.876 325.000 390.934 C 325.000 387.789 326.749 385.181 329.980 383.510 C 336.328 380.227 342.792 382.811 345.005 389.516 L 346.155 393.000 355.578 393.000 C 364.433 393.000 365.000 392.876 365.000 390.934 C 365.000 384.521 369.338 382.420 384.001 381.730 C 412.978 380.367 430.458 365.957 434.189 340.357 C 436.407 325.139 431.035 308.130 420.534 297.121 C 413.725 289.983 407.272 286.369 397.776 284.377 C 386.860 282.087 374.548 284.041 361.537 290.129 C 355.387 293.007 354.509 293.170 350.913 292.092 C 344.603 290.202 341.589 283.629 344.474 278.051 C 347.138 272.898 357.495 267.372 370.857 263.973 L 375.214 262.865 374.514 257.268 C 370.182 222.594 345.484 189.344 312.621 173.944 C 298.000 167.092 287.874 164.866 269.500 164.462 C 260.700 164.269 251.439 164.488 248.919 164.948 "/></g>
<g fill="#000000FF" stroke="#000000FF">
<path d="M 315.000 60.871 C 277.721 69.030 249.736 97.933 242.261 135.994 L 240.440 145.266 232.970 147.195 C 223.683 149.593 211.066 154.673 202.497 159.464 C 186.627 168.339 168.078 185.566 159.000 199.860 C 155.002 206.156 154.221 206.883 152.000 206.380 C 139.855 203.629 134.840 203.032 123.708 203.017 C 95.942 202.980 73.595 211.783 54.206 230.397 C 3.073 279.487 17.225 363.898 81.573 393.629 C 85.802 395.583 93.591 398.366 98.881 399.813 L 108.500 402.444 202.708 402.769 C 307.105 403.130 301.644 403.456 304.487 396.692 C 305.619 394.002 305.600 392.976 304.365 390.007 C 301.436 382.967 309.695 383.559 205.715 382.933 C 103.126 382.315 106.783 382.522 91.725 376.484 C 68.798 367.290 52.789 347.838 46.354 321.353 C 43.889 311.210 44.159 291.862 46.909 281.500 C 52.263 261.324 63.260 245.614 79.283 235.248 C 93.108 226.305 108.493 222.466 127.578 223.199 C 137.532 223.581 140.941 224.159 148.229 226.702 C 170.355 234.421 188.266 250.966 197.059 271.807 C 200.330 279.561 202.873 282.000 207.688 282.000 C 212.303 282.000 217.000 277.467 217.000 273.012 C 217.000 260.964 196.959 233.017 180.017 221.442 C 176.158 218.805 173.000 216.221 173.000 215.700 C 173.000 213.691 182.756 201.170 189.615 194.378 C 203.033 181.090 221.208 170.919 240.500 165.903 C 248.198 163.901 251.960 163.559 266.500 163.538 C 281.222 163.516 284.706 163.830 292.500 165.878 C 323.289 173.968 348.570 193.511 363.102 220.452 C 368.316 230.117 372.492 241.730 374.431 251.951 C 376.735 264.095 376.971 263.473 369.341 265.356 C 361.550 267.278 352.925 271.057 348.334 274.559 C 342.252 279.198 343.220 288.192 350.109 291.045 C 352.892 292.198 353.914 292.135 357.906 290.565 C 374.597 284.000 379.177 282.845 388.426 282.864 C 402.168 282.892 411.405 286.562 420.421 295.579 C 435.412 310.570 439.880 335.796 430.934 354.943 C 422.562 372.863 407.487 381.556 382.739 382.735 C 372.035 383.245 370.761 383.512 368.567 385.706 C 365.580 388.693 364.344 394.977 366.170 397.900 C 368.876 402.234 373.389 403.327 385.943 402.691 C 404.073 401.773 416.150 397.690 429.000 388.137 C 440.654 379.473 451.038 363.500 454.444 349.000 C 456.635 339.671 456.446 324.065 454.028 314.609 C 450.335 300.171 441.095 286.031 429.716 277.407 C 422.158 271.679 409.486 265.600 401.884 264.055 L 396.267 262.914 395.609 256.488 C 395.247 252.954 393.840 245.685 392.484 240.336 L 390.016 230.611 393.758 227.638 C 431.753 197.450 440.775 142.512 414.427 101.782 C 402.249 82.955 383.360 68.959 361.282 62.401 C 349.209 58.815 327.649 58.102 315.000 60.871 M 356.500 81.992 C 391.133 92.903 413.348 126.513 409.008 161.436 C 406.886 178.513 400.290 192.346 388.288 204.887 L 381.076 212.423 373.914 201.580 C 351.416 167.514 314.565 146.233 274.750 144.313 L 262.000 143.698 262.000 140.775 C 262.000 139.168 263.151 134.398 264.558 130.176 C 272.791 105.466 294.024 86.232 319.500 80.404 C 328.437 78.360 347.577 79.181 356.500 81.992 "/></g>
<g fill="#FFCD69FF" stroke="#FFCD69FF">
<path d="M 317.500 81.951 C 289.915 89.208 270.066 109.504 263.565 137.104 L 262.246 142.708 274.373 143.318 C 311.380 145.179 346.102 163.531 369.246 193.462 C 373.057 198.390 377.045 204.128 378.108 206.212 C 379.171 208.295 380.661 210.000 381.420 210.000 C 383.028 210.000 391.692 200.761 396.121 194.324 C 405.890 180.126 410.539 160.247 408.003 143.519 C 405.343 125.972 397.887 111.805 384.862 99.552 C 375.754 90.984 363.404 84.218 352.000 81.550 C 342.962 79.436 326.329 79.629 317.500 81.951 "/></g>
<g fill="#000000FF" stroke="#000000FF">
<path d="M 249.272 433.962 C 246.032 436.980 227.911 467.664 226.290 472.876 C 221.766 487.423 230.719 505.650 244.734 510.425 C 250.658 512.443 261.342 512.443 267.266 510.425 C 281.281 505.650 290.234 487.423 285.710 472.876 C 284.089 467.664 265.968 436.980 262.728 433.962 C 261.266 432.599 259.210 432.000 256.000 432.000 C 252.790 432.000 250.734 432.599 249.272 433.962 M 261.811 470.250 C 267.985 481.035 268.210 484.571 263.019 489.250 C 256.786 494.869 246.636 491.266 245.412 483.000 C 244.981 480.086 245.781 477.950 250.189 470.250 C 253.101 465.163 255.716 461.000 256.000 461.000 C 256.284 461.000 258.899 465.163 261.811 470.250 "/></g>
<g fill="#000000FF" stroke="#000000FF">
<path d="M 372.267 433.525 C 370.007 435.109 352.159 464.030 349.325 470.701 C 346.756 476.749 347.145 487.458 350.173 494.046 C 353.721 501.763 357.175 505.432 364.200 508.942 C 375.314 514.496 389.410 512.792 398.492 504.798 C 404.651 499.377 408.171 492.246 408.759 484.000 C 409.014 480.425 408.724 475.658 408.115 473.408 C 406.690 468.141 386.561 434.370 384.044 433.023 C 381.211 431.507 374.755 431.783 372.267 433.525 M 383.896 470.000 C 390.322 480.710 390.495 485.479 384.633 490.228 C 381.914 492.430 375.168 492.506 372.117 490.369 C 368.848 488.080 366.873 482.927 367.899 479.368 C 368.739 476.458 377.978 460.629 378.508 461.193 C 378.667 461.362 381.092 465.325 383.896 470.000 "/></g>
<g fill="#000000FF" stroke="#000000FF">
<path d="M 127.151 433.750 C 124.134 436.299 105.187 468.595 103.885 473.407 C 102.187 479.680 103.274 489.652 106.305 495.623 C 109.516 501.951 116.604 508.336 122.734 510.425 C 125.276 511.291 130.579 512.000 134.518 512.000 C 151.572 512.000 164.352 498.915 164.307 481.500 C 164.296 477.334 163.635 472.962 162.675 470.701 C 159.841 464.030 141.993 435.109 139.733 433.525 C 136.756 431.440 129.736 431.566 127.151 433.750 M 138.837 469.250 C 141.571 473.788 143.903 478.400 144.019 479.500 C 144.508 484.134 143.838 486.315 141.077 489.077 C 134.417 495.737 123.000 490.877 123.000 481.381 C 123.000 479.284 132.556 461.000 133.652 461.000 C 133.769 461.000 136.103 464.713 138.837 469.250 "/></g>
<g fill="#000000FF" stroke="#000000FF">
<path d="M 439.383 204.583 C 434.240 207.120 432.225 215.021 435.521 219.726 C 436.357 220.920 442.800 225.070 449.838 228.949 C 464.911 237.254 467.526 237.674 472.600 232.600 C 477.024 228.176 477.251 223.411 473.250 219.000 C 470.117 215.547 447.532 202.999 444.500 203.027 C 443.400 203.037 441.097 203.738 439.383 204.583 "/></g>
<g fill="#000000FF" stroke="#000000FF">
<path d="M 198.656 72.133 C 196.042 73.652 193.914 79.319 194.624 82.869 C 195.511 87.304 197.669 89.108 210.794 96.386 C 224.657 104.072 228.109 104.662 233.107 100.195 C 235.583 97.983 236.268 96.541 236.352 93.369 C 236.410 91.156 235.738 88.256 234.859 86.923 C 233.981 85.590 227.794 81.463 221.110 77.750 C 211.380 72.345 208.116 71.006 204.729 71.030 C 202.403 71.047 199.670 71.543 198.656 72.133 "/></g>
<g fill="#000000FF" stroke="#000000FF">
<path d="M 401.297 14.505 C 398.728 16.304 386.263 38.434 385.407 42.715 C 383.554 51.979 396.355 58.587 402.808 51.698 C 403.940 50.489 407.679 44.550 411.117 38.500 C 416.321 29.341 417.378 26.691 417.433 22.663 C 417.490 18.560 417.074 17.461 414.694 15.413 C 411.397 12.578 404.697 12.123 401.297 14.505 "/></g>
<g fill="#000000FF" stroke="#000000FF">
<path d="M 463.085 105.488 C 449.617 109.441 447.586 110.419 446.110 113.657 C 442.804 120.913 447.210 129.000 454.469 129.000 C 459.880 129.000 483.144 122.100 485.735 119.727 C 490.242 115.598 489.543 106.896 484.434 103.549 C 480.962 101.274 475.861 101.737 463.085 105.488 "/></g>
<g fill="#000000FF" stroke="#000000FF">
<path d="M 286.589 3.077 C 284.888 5.099 284.000 7.348 284.000 9.638 C 284.000 13.801 290.347 36.354 292.401 39.489 C 296.153 45.216 306.434 44.929 309.494 39.011 C 311.691 34.763 311.406 31.986 307.292 17.529 C 302.860 1.956 301.392 0.000 294.134 -0.000 C 289.827 -0.000 288.839 0.403 286.589 3.077 "/></g>
<g fill="#000000FF" stroke="#000000FF">
<path d="M 328.714 385.558 C 325.599 388.674 324.310 394.923 326.170 397.900 C 327.623 400.227 332.785 403.002 335.651 402.996 C 338.774 402.990 343.683 399.347 344.770 396.230 C 346.010 392.673 343.405 385.822 340.151 384.081 C 336.517 382.136 331.487 382.786 328.714 385.558 "/></g>
</svg>
