<?xml version="1.0" encoding="utf-8"?>
<!DOCTYPE svg PUBLIC "-//W3C//DTD SVG 20010904//EN" "http://www.w3.org/TR/2001/REC-SVG-20010904/DTD/svg10.dtd">
<svg version="1.0" xmlns="http://www.w3.org/2000/svg" width="512pt" height="512pt" viewBox="0 0 512 512" style="" preserveAspectRatio="xMidYMid meet">
<g fill="#A0C8FFFF" stroke="#A0C8FFFF">
<path d="M 265.097 26.612 C 229.818 32.524 195.831 55.221 176.722 85.629 L 174.128 89.758 182.314 95.122 C 192.933 102.081 207.037 116.215 214.361 127.237 C 220.950 137.152 227.961 152.118 227.985 156.316 C 228.035 165.493 218.046 170.275 211.077 164.411 C 209.385 162.987 208.000 161.267 208.000 160.589 C 208.000 159.910 206.036 155.338 203.637 150.427 C 188.391 119.236 156.974 98.149 123.000 96.306 C 74.950 93.699 36.378 121.706 24.780 167.625 C 21.765 179.563 21.556 203.439 24.360 215.500 C 31.134 244.633 49.434 268.014 74.541 279.614 C 78.788 281.576 86.591 284.370 91.881 285.822 L 101.500 288.463 213.146 288.982 C 320.897 289.482 324.864 289.566 326.883 291.393 C 328.033 292.435 329.520 294.797 330.188 296.643 L 331.402 300.000 340.701 300.000 C 349.481 300.000 350.000 299.883 350.000 297.900 C 350.000 296.745 351.588 294.212 353.528 292.272 C 356.699 289.101 357.466 288.799 361.106 289.287 C 365.903 289.931 368.530 292.059 370.188 296.643 L 371.402 300.000 380.701 300.000 C 389.309 300.000 390.000 299.852 390.000 298.016 C 390.000 296.924 391.313 294.562 392.918 292.766 L 395.836 289.500 413.668 289.391 C 433.494 289.270 442.020 287.972 454.294 283.206 C 475.739 274.879 488.238 258.244 490.969 234.395 C 494.284 205.443 477.685 180.436 448.490 170.401 C 441.661 168.053 438.901 167.655 429.500 167.661 C 417.228 167.668 410.422 169.437 400.811 175.120 C 393.557 179.409 388.648 179.409 384.816 175.121 C 381.353 171.244 380.998 165.544 383.983 161.749 C 386.838 158.119 401.243 151.305 411.324 148.817 L 419.980 146.680 419.360 141.090 C 419.020 138.015 417.494 130.550 415.970 124.500 C 403.176 73.722 361.099 34.829 310.000 26.548 C 298.331 24.657 276.579 24.688 265.097 26.612 "/></g>
<g fill="#000000FF" stroke="#000000FF">
<path d="M 266.500 5.113 C 242.305 8.617 215.815 19.498 196.883 33.709 C 182.429 44.559 166.904 61.375 158.035 75.789 C 155.736 79.524 154.307 80.921 153.144 80.566 C 123.608 71.561 90.746 74.004 64.725 87.139 C 49.343 94.904 33.289 108.261 22.865 121.968 C 15.891 131.139 6.536 150.518 3.298 162.500 C 0.784 171.800 0.595 173.901 0.595 192.500 C 0.595 211.065 0.787 213.210 3.275 222.388 C 16.029 269.447 55.608 303.476 104.027 309.012 C 110.414 309.742 147.915 309.998 219.145 309.797 C 323.170 309.505 324.824 309.469 327.010 307.500 C 331.673 303.298 331.391 296.891 326.338 292.250 L 323.888 290.000 218.194 289.969 C 155.917 289.951 109.419 289.540 105.000 288.968 C 100.875 288.434 93.930 287.074 89.567 285.945 C 37.063 272.355 8.233 214.333 26.570 159.156 C 37.287 126.908 60.073 106.088 93.693 97.825 C 106.666 94.637 128.226 94.635 139.953 97.822 C 160.707 103.462 177.298 113.803 191.072 129.686 C 197.818 137.464 202.007 144.230 206.525 154.646 C 208.398 158.966 210.897 163.288 212.076 164.250 C 215.380 166.945 221.203 166.525 224.364 163.364 C 227.971 159.757 227.777 155.336 223.594 145.754 C 214.585 125.119 199.539 107.453 180.046 94.621 C 177.047 92.646 174.171 90.890 173.655 90.718 C 171.828 90.109 183.213 74.015 192.468 64.122 C 197.487 58.757 209.846 48.761 217.581 43.808 C 229.136 36.410 246.325 29.644 262.000 26.322 C 273.999 23.780 302.134 23.779 314.000 26.321 C 340.561 32.009 363.381 44.300 382.031 62.962 C 403.503 84.448 416.355 111.229 420.441 143.000 L 421.020 147.500 411.760 149.717 C 401.410 152.196 386.602 159.151 384.346 162.594 C 380.855 167.922 383.688 175.619 389.783 177.367 C 392.396 178.116 394.048 177.640 400.682 174.225 C 414.214 167.259 425.150 165.129 437.662 167.023 C 452.819 169.317 466.979 176.726 476.850 187.526 C 487.267 198.924 492.000 211.239 492.000 226.945 C 492.000 260.146 473.022 282.004 438.500 288.564 C 432.161 289.768 424.715 290.249 413.316 290.191 C 398.576 290.116 396.904 290.287 394.590 292.108 C 391.013 294.922 389.477 301.088 391.419 304.843 C 394.000 309.835 396.640 310.262 421.717 309.745 C 445.654 309.251 449.660 308.640 462.217 303.568 C 485.604 294.122 504.059 272.565 510.010 247.743 C 512.722 236.429 512.722 219.191 510.010 208.410 C 502.606 178.982 479.094 155.627 449.836 148.638 L 441.127 146.557 440.506 141.529 C 436.040 105.382 422.354 75.893 398.596 51.226 C 383.079 35.116 367.752 24.410 348.039 15.911 C 337.708 11.457 320.000 6.571 308.678 5.050 C 299.543 3.824 275.151 3.860 266.500 5.113 "/></g>
<g fill="#000000FF" stroke="#000000FF">
<path d="M 176.469 428.399 C 174.097 429.432 171.184 433.481 163.070 447.028 C 157.368 456.548 152.095 466.358 151.351 468.827 C 147.306 482.271 153.475 497.361 165.857 504.308 C 171.987 507.748 182.575 509.013 189.515 507.135 C 200.337 504.208 209.098 494.503 211.220 483.094 C 213.136 472.788 211.633 468.318 199.308 447.678 C 190.429 432.810 188.027 429.491 185.326 428.363 C 181.358 426.705 180.347 426.709 176.469 428.399 M 186.437 465.275 C 192.767 475.822 193.205 480.641 188.234 485.082 C 185.789 487.267 183.972 488.000 181.000 488.000 C 178.028 488.000 176.211 487.267 173.766 485.082 C 168.795 480.641 169.233 475.822 175.563 465.275 C 178.278 460.751 180.725 457.049 181.000 457.049 C 181.275 457.049 183.722 460.751 186.437 465.275 "/></g>
<g fill="#000000FF" stroke="#000000FF">
<path d="M 326.500 427.899 C 325.400 428.375 323.780 429.605 322.901 430.632 C 320.129 433.870 302.337 464.342 301.142 467.899 C 300.514 469.769 300.000 474.269 300.001 477.899 C 300.002 490.247 308.559 502.617 319.734 506.425 C 325.650 508.441 335.350 508.441 341.266 506.425 C 346.845 504.524 354.144 498.317 357.463 492.651 C 361.741 485.349 362.469 471.621 358.940 464.817 C 355.183 457.573 338.845 431.169 337.197 429.678 C 334.900 427.599 329.333 426.673 326.500 427.899 M 335.933 465.389 C 342.224 475.805 342.670 480.176 337.923 484.923 C 331.162 491.684 319.998 486.875 320.001 477.203 C 320.001 474.972 329.352 457.000 330.512 457.000 C 330.707 457.000 333.146 460.775 335.933 465.389 "/></g>
<g fill="#000000FF" stroke="#000000FF">
<path d="M 400.226 330.554 C 396.765 332.978 377.407 366.136 375.980 372.084 C 372.633 386.033 380.157 401.104 393.500 407.181 C 400.482 410.361 411.518 410.361 418.500 407.181 C 431.843 401.104 439.367 386.033 436.020 372.084 C 434.593 366.136 415.235 332.978 411.774 330.554 C 410.554 329.699 407.955 329.000 406.000 329.000 C 404.045 329.000 401.446 329.699 400.226 330.554 M 411.925 367.869 C 414.716 372.746 417.000 377.719 417.000 378.918 C 417.000 384.297 411.339 390.000 406.000 390.000 C 400.637 390.000 395.000 384.294 395.000 378.865 C 395.000 376.583 404.864 359.000 406.144 359.000 C 406.532 359.000 409.134 362.991 411.925 367.869 "/></g>
<g fill="#000000FF" stroke="#000000FF">
<path d="M 250.226 330.554 C 246.765 332.978 227.407 366.136 225.980 372.084 C 222.633 386.033 230.157 401.104 243.500 407.181 C 250.482 410.361 261.518 410.361 268.500 407.181 C 281.843 401.104 289.367 386.033 286.020 372.084 C 284.593 366.136 265.235 332.978 261.774 330.554 C 260.554 329.699 257.955 329.000 256.000 329.000 C 254.045 329.000 251.446 329.699 250.226 330.554 M 261.925 367.869 C 264.716 372.746 267.000 377.719 267.000 378.918 C 267.000 384.297 261.339 390.000 256.000 390.000 C 250.637 390.000 245.000 384.294 245.000 378.865 C 245.000 376.583 254.864 359.000 256.144 359.000 C 256.532 359.000 259.134 362.991 261.925 367.869 "/></g>
<g fill="#000000FF" stroke="#000000FF">
<path d="M 100.226 330.554 C 96.765 332.978 77.407 366.136 75.980 372.084 C 72.633 386.033 80.157 401.104 93.500 407.181 C 100.482 410.361 111.518 410.361 118.500 407.181 C 131.843 401.104 139.367 386.033 136.020 372.084 C 134.593 366.136 115.235 332.978 111.774 330.554 C 110.554 329.699 107.955 329.000 106.000 329.000 C 104.045 329.000 101.446 329.699 100.226 330.554 M 111.925 367.869 C 114.716 372.746 117.000 377.719 117.000 378.918 C 117.000 384.297 111.339 390.000 106.000 390.000 C 100.637 390.000 95.000 384.294 95.000 378.865 C 95.000 376.583 104.864 359.000 106.144 359.000 C 106.532 359.000 109.134 362.991 111.925 367.869 "/></g>
<g fill="#000000FF" stroke="#000000FF">
<path d="M 354.659 292.054 C 351.021 294.916 349.463 301.062 351.419 304.843 C 355.255 312.261 367.436 310.930 370.309 302.778 C 371.198 300.256 369.153 294.835 366.338 292.250 C 363.236 289.400 358.141 289.315 354.659 292.054 "/></g>
</svg>
