<?xml version="1.0" encoding="utf-8"?>
<!DOCTYPE svg PUBLIC "-//W3C//DTD SVG 20010904//EN" "http://www.w3.org/TR/2001/REC-SVG-20010904/DTD/svg10.dtd">
<svg version="1.0" xmlns="http://www.w3.org/2000/svg" width="512pt" height="512pt" viewBox="0 0 512 512" style="" preserveAspectRatio="xMidYMid meet">
<g fill="#A0C8FFFF" stroke="#A0C8FFFF">
<path d="M 274.000 58.036 C 236.060 62.016 201.152 82.858 179.387 114.528 L 174.021 122.337 182.062 127.721 C 192.410 134.649 203.603 145.312 211.182 155.463 C 218.421 165.160 227.065 182.394 227.753 188.505 C 228.210 192.559 227.946 193.254 224.727 196.473 C 220.813 200.387 217.683 200.922 212.964 198.481 C 210.726 197.324 208.868 194.504 205.157 186.637 C 199.010 173.605 193.395 165.326 185.034 156.966 C 173.793 145.724 159.525 137.299 143.288 132.316 C 135.260 129.852 133.030 129.614 117.500 129.559 C 104.250 129.513 99.104 129.886 94.173 131.249 C 72.196 137.324 54.572 148.705 41.429 165.307 C 18.889 193.782 14.253 232.707 29.479 265.660 C 40.157 288.771 61.191 307.920 84.978 316.183 C 100.422 321.548 95.132 321.313 214.170 321.928 L 324.840 322.500 327.368 324.876 C 328.759 326.182 330.180 328.545 330.528 330.126 L 331.159 333.000 340.454 333.000 L 349.750 333.000 350.355 329.974 C 351.882 322.338 360.763 319.406 366.850 324.527 C 368.502 325.917 370.147 328.392 370.506 330.027 L 371.159 333.000 380.454 333.000 L 389.750 333.000 390.355 329.974 C 390.688 328.310 392.019 325.890 393.314 324.595 C 395.616 322.293 396.168 322.231 418.584 321.748 C 436.417 321.364 442.720 320.872 447.000 319.531 C 467.905 312.980 484.337 296.158 489.646 275.876 C 492.369 265.470 491.843 252.163 488.303 241.891 C 475.912 205.942 436.215 189.821 402.519 207.053 C 392.986 211.928 389.006 212.160 384.923 208.077 C 381.235 204.388 380.912 198.653 384.160 194.524 C 387.175 190.690 402.730 183.370 412.173 181.341 L 420.069 179.645 419.466 175.072 C 416.153 149.970 407.770 129.095 393.267 109.827 C 365.675 73.171 319.765 53.235 274.000 58.036 "/></g>
<g fill="#000000FF" stroke="#000000FF">
<path d="M 274.694 37.060 C 228.125 41.192 186.618 65.780 160.800 104.529 L 154.784 113.558 145.642 111.100 C 137.513 108.915 134.395 108.635 117.500 108.571 C 100.619 108.508 97.496 108.763 89.500 110.855 C 45.946 122.251 14.251 153.647 2.926 196.614 C 0.239 206.807 -0.829 232.521 0.966 243.778 C 3.876 262.022 11.958 280.840 23.438 296.099 C 43.414 322.653 73.286 338.980 107.420 342.002 C 113.758 342.563 161.847 342.987 219.782 342.991 C 330.521 343.001 326.281 343.224 329.390 337.213 C 331.360 333.403 329.980 327.916 326.331 325.045 C 323.750 323.015 322.963 323.000 222.115 322.991 C 164.007 322.987 115.790 322.563 109.500 322.003 C 84.635 319.789 64.092 310.115 47.323 292.726 C 35.106 280.056 27.324 266.474 22.804 249.933 C 20.832 242.714 20.500 239.126 20.503 225.000 C 20.506 207.161 21.203 203.187 26.949 188.289 C 32.567 173.721 44.777 157.786 58.000 147.764 C 66.399 141.399 82.344 133.559 92.500 130.801 C 104.078 127.658 129.951 127.647 141.284 130.782 C 157.868 135.370 173.658 144.513 185.572 156.428 C 194.313 165.168 199.870 173.309 206.075 186.464 C 209.589 193.913 211.561 196.934 213.479 197.809 C 217.785 199.770 220.927 199.227 224.202 195.952 C 226.914 193.240 227.194 192.415 226.747 188.447 C 226.119 182.877 219.813 169.608 212.909 159.330 C 206.054 149.124 191.606 134.888 181.237 128.122 L 172.995 122.744 175.194 119.122 C 183.146 106.027 200.435 87.901 212.873 79.618 C 235.855 64.314 260.381 56.897 288.000 56.897 C 310.679 56.897 328.957 61.276 348.813 71.468 C 386.933 91.034 413.111 127.493 419.534 169.967 C 420.322 175.174 420.636 179.723 420.233 180.076 C 419.830 180.429 416.916 181.216 413.759 181.824 C 407.085 183.109 396.535 187.168 390.040 190.948 C 384.386 194.238 381.808 198.820 383.077 203.323 C 385.090 210.464 391.850 211.936 400.378 207.089 C 435.304 187.242 480.275 206.539 490.430 245.730 C 492.422 253.417 492.448 267.816 490.485 275.540 C 485.016 297.054 467.759 314.528 446.000 320.583 C 442.219 321.636 433.544 322.298 418.242 322.702 C 396.489 323.276 395.929 323.343 393.597 325.675 C 390.873 328.400 389.460 334.123 390.865 336.747 C 391.387 337.724 392.805 339.417 394.016 340.511 C 396.076 342.372 397.643 342.498 418.359 342.473 C 444.831 342.442 451.566 341.255 466.500 333.992 C 483.771 325.593 495.235 314.306 503.561 297.500 C 509.801 284.904 512.002 275.403 511.993 261.090 C 511.982 242.861 508.043 229.355 498.591 215.137 C 487.338 198.210 466.874 184.422 447.783 180.904 L 441.103 179.673 440.462 174.087 C 440.109 171.014 438.931 164.000 437.845 158.500 C 426.206 99.562 378.656 51.828 319.351 39.550 C 312.796 38.193 288.882 35.811 285.105 36.139 C 284.222 36.216 279.537 36.631 274.694 37.060 "/></g>
<g fill="#000000FF" stroke="#000000FF">
<path d="M 398.687 374.805 C 396.048 377.559 396.000 377.847 396.000 390.805 C 396.000 398.062 395.790 404.000 395.534 404.000 C 395.277 404.000 390.469 401.075 384.849 397.500 C 376.787 392.372 373.811 391.000 370.749 391.000 C 365.827 391.000 363.413 392.302 361.510 395.980 C 357.755 403.242 360.013 406.778 374.334 416.055 L 386.170 423.723 374.492 431.091 C 360.070 440.190 357.761 443.769 361.566 451.128 C 363.450 454.771 368.892 457.316 372.734 456.352 C 374.229 455.977 379.963 452.800 385.476 449.292 L 395.500 442.914 395.780 456.037 C 396.094 470.793 397.005 473.355 402.479 474.866 C 406.928 476.095 410.467 475.260 413.448 472.279 C 415.829 469.898 415.958 469.161 416.222 456.348 L 416.500 442.914 426.524 449.292 C 432.037 452.800 437.771 455.977 439.266 456.352 C 443.108 457.316 448.550 454.771 450.434 451.128 C 454.259 443.730 451.881 440.031 437.482 430.989 L 425.871 423.697 437.687 416.042 C 451.985 406.779 454.244 403.240 450.490 395.980 C 448.587 392.302 446.173 391.000 441.251 391.000 C 438.189 391.000 435.213 392.372 427.151 397.500 C 421.531 401.075 416.723 404.000 416.466 404.000 C 416.210 404.000 416.000 398.009 416.000 390.687 C 416.000 377.406 415.993 377.368 413.195 374.687 C 409.159 370.820 402.452 370.875 398.687 374.805 "/></g>
<g fill="#000000FF" stroke="#000000FF">
<path d="M 248.687 374.805 C 246.048 377.559 246.000 377.847 246.000 390.805 C 246.000 398.062 245.790 404.000 245.534 404.000 C 245.277 404.000 240.469 401.075 234.849 397.500 C 226.787 392.372 223.811 391.000 220.749 391.000 C 215.827 391.000 213.413 392.302 211.510 395.980 C 207.755 403.242 210.013 406.778 224.334 416.055 L 236.170 423.723 224.492 431.091 C 210.070 440.190 207.761 443.769 211.566 451.128 C 213.450 454.771 218.892 457.316 222.734 456.352 C 224.229 455.977 229.963 452.800 235.476 449.292 L 245.500 442.914 245.780 456.037 C 246.094 470.793 247.005 473.355 252.479 474.866 C 256.928 476.095 260.467 475.260 263.448 472.279 C 265.829 469.898 265.958 469.161 266.222 456.348 L 266.500 442.914 276.524 449.292 C 282.037 452.800 287.771 455.977 289.266 456.352 C 293.108 457.316 298.550 454.771 300.434 451.128 C 304.259 443.730 301.881 440.031 287.482 430.989 L 275.871 423.697 287.687 416.042 C 301.985 406.779 304.244 403.240 300.490 395.980 C 298.587 392.302 296.173 391.000 291.251 391.000 C 288.189 391.000 285.213 392.372 277.151 397.500 C 271.531 401.075 266.723 404.000 266.466 404.000 C 266.210 404.000 266.000 398.009 266.000 390.687 C 266.000 377.406 265.993 377.368 263.195 374.687 C 259.159 370.820 252.452 370.875 248.687 374.805 "/></g>
<g fill="#000000FF" stroke="#000000FF">
<path d="M 98.687 374.805 C 96.048 377.559 96.000 377.847 96.000 390.805 C 96.000 398.062 95.790 404.000 95.534 404.000 C 95.277 404.000 90.469 401.075 84.849 397.500 C 76.787 392.372 73.811 391.000 70.749 391.000 C 65.827 391.000 63.413 392.302 61.510 395.980 C 57.755 403.242 60.013 406.778 74.334 416.055 L 86.170 423.723 74.492 431.091 C 60.070 440.190 57.761 443.769 61.566 451.128 C 63.450 454.771 68.892 457.316 72.734 456.352 C 74.229 455.977 79.963 452.800 85.476 449.292 L 95.500 442.914 95.780 456.037 C 96.094 470.793 97.005 473.355 102.479 474.866 C 106.928 476.095 110.467 475.260 113.448 472.279 C 115.829 469.898 115.958 469.161 116.222 456.348 L 116.500 442.914 126.524 449.292 C 132.037 452.800 137.771 455.977 139.266 456.352 C 143.108 457.316 148.550 454.771 150.434 451.128 C 154.259 443.730 151.881 440.031 137.482 430.989 L 125.871 423.697 137.687 416.042 C 151.985 406.779 154.244 403.240 150.490 395.980 C 148.587 392.302 146.173 391.000 141.251 391.000 C 138.189 391.000 135.213 392.372 127.151 397.500 C 121.531 401.075 116.723 404.000 116.466 404.000 C 116.210 404.000 116.000 398.009 116.000 390.687 C 116.000 377.406 115.993 377.368 113.195 374.687 C 109.159 370.820 102.452 370.875 98.687 374.805 "/></g>
<g fill="#000000FF" stroke="#000000FF">
<path d="M 353.742 325.531 C 347.726 331.547 350.103 340.449 358.242 342.383 C 362.077 343.294 367.560 340.751 369.390 337.213 C 374.190 327.931 361.108 318.165 353.742 325.531 "/></g>
</svg>
