<?xml version="1.0" encoding="utf-8"?>
<!DOCTYPE svg PUBLIC "-//W3C//DTD SVG 20010904//EN" "http://www.w3.org/TR/2001/REC-SVG-20010904/DTD/svg10.dtd">
<svg version="1.0" xmlns="http://www.w3.org/2000/svg" width="512pt" height="512pt" viewBox="0 0 512 512" style="" preserveAspectRatio="xMidYMid meet">
<g fill="#FFCD69FF" stroke="#FFCD69FF">
<path d="M 243.492 108.007 C 218.409 110.131 194.300 118.746 171.835 133.613 C 160.875 140.866 140.509 161.524 133.004 173.000 C 120.841 191.600 112.823 211.538 109.480 231.500 C 107.260 244.750 107.269 267.334 109.498 280.500 C 114.726 311.381 129.818 339.840 152.829 362.211 C 193.845 402.086 251.829 414.784 306.000 395.755 C 339.107 384.125 369.187 358.229 386.749 326.240 C 399.744 302.569 406.167 272.140 403.968 244.668 C 403.053 233.224 400.734 220.332 398.405 213.730 C 397.632 211.540 397.000 208.433 397.000 206.825 C 397.000 203.823 399.482 198.012 400.776 197.985 C 401.174 197.976 402.077 197.603 402.783 197.155 C 403.768 196.530 403.158 194.368 400.151 187.829 L 396.237 179.316 390.859 179.762 C 386.027 180.162 385.202 179.929 382.740 177.468 C 378.845 173.572 378.616 167.133 382.236 163.260 C 384.107 161.258 384.172 160.835 382.848 159.260 C 382.034 158.292 379.255 154.971 376.674 151.880 L 371.980 146.261 368.240 148.072 C 362.947 150.636 360.362 149.740 351.378 142.232 C 321.441 117.214 282.107 104.736 243.492 108.007 "/></g>
<g fill="#000000FF" stroke="#000000FF">
<path d="M 227.500 88.883 C 190.896 95.608 162.402 110.490 136.437 136.443 C 112.077 160.792 97.317 187.960 89.772 222.336 C 87.816 231.248 87.541 235.394 87.541 256.000 C 87.541 276.606 87.816 280.752 89.772 289.664 C 104.664 357.519 154.558 407.409 222.336 422.218 C 231.229 424.161 235.439 424.439 256.000 424.439 C 276.561 424.439 280.771 424.161 289.664 422.218 C 357.442 407.409 407.336 357.519 422.228 289.664 C 424.184 280.752 424.459 276.606 424.459 256.000 C 424.459 231.624 423.548 224.228 418.439 207.085 C 415.220 196.287 408.190 193.049 401.393 199.234 C 398.128 202.205 397.874 202.836 398.277 206.984 C 398.519 209.468 400.005 216.675 401.581 223.000 C 404.290 233.870 404.447 235.678 404.447 256.000 C 404.447 275.750 404.232 278.403 401.813 288.597 C 387.163 350.315 337.263 395.933 275.500 404.072 C 261.624 405.901 236.026 404.733 222.986 401.676 C 165.985 388.315 122.617 344.361 109.839 287.000 C 107.786 277.783 107.504 273.934 107.534 255.500 C 107.565 236.382 107.803 233.505 110.195 223.403 C 123.690 166.390 166.390 123.690 223.403 110.195 C 233.505 107.803 236.382 107.565 255.500 107.534 C 273.911 107.504 277.780 107.787 286.881 109.824 C 312.897 115.649 333.845 126.223 355.535 144.477 C 361.199 149.244 365.740 149.745 370.776 146.159 C 373.571 144.169 374.000 143.279 374.000 139.467 C 374.000 133.782 371.160 130.496 357.093 119.898 C 339.000 106.268 314.013 95.036 290.500 89.965 C 276.012 86.840 241.816 86.253 227.500 88.883 "/></g>
<g fill="#000000FF" stroke="#000000FF">
<path d="M 351.288 1.772 C 348.217 4.171 325.829 58.156 325.770 63.303 C 325.707 68.903 329.890 73.000 335.671 73.000 C 342.952 73.000 344.400 70.777 356.874 40.450 C 369.290 10.264 369.955 7.247 365.195 2.687 C 361.805 -0.561 354.860 -1.018 351.288 1.772 "/></g>
<g fill="#000000FF" stroke="#000000FF">
<path d="M 328.551 441.947 C 326.437 444.153 325.738 445.850 325.770 448.697 C 325.829 453.844 348.217 507.829 351.288 510.228 C 352.649 511.291 355.294 511.964 358.161 511.978 C 362.152 511.997 363.194 511.558 365.411 508.923 C 367.154 506.852 368.000 504.662 368.000 502.223 C 368.000 496.779 346.603 445.313 342.858 441.750 C 338.688 437.782 332.459 437.868 328.551 441.947 "/></g>
<g fill="#000000FF" stroke="#000000FF">
<path d="M 31.000 337.614 C 13.487 344.912 2.873 349.877 1.772 351.287 C -1.018 354.860 -0.561 361.805 2.687 365.195 C 7.252 369.960 10.263 369.294 40.450 356.841 C 55.720 350.542 68.698 344.582 70.250 343.154 C 72.489 341.095 73.000 339.767 73.000 336.000 C 73.000 332.237 72.477 330.873 70.195 328.687 C 65.280 323.978 61.845 324.761 31.000 337.614 "/></g>
<g fill="#000000FF" stroke="#000000FF">
<path d="M 146.589 3.077 C 144.850 5.143 144.000 7.339 144.000 9.763 C 144.000 14.442 165.369 66.448 168.854 70.250 C 170.907 72.490 172.231 73.000 176.000 73.000 C 182.106 73.000 186.109 69.205 186.146 63.382 C 186.179 58.204 163.916 4.263 160.718 1.772 C 159.355 0.710 156.703 0.036 153.839 0.022 C 149.848 0.003 148.806 0.442 146.589 3.077 "/></g>
<g fill="#000000FF" stroke="#000000FF">
<path d="M 441.687 328.805 C 437.904 332.753 437.932 338.846 441.750 342.858 C 445.313 346.603 496.779 368.000 502.223 368.000 C 504.662 368.000 506.852 367.154 508.923 365.411 C 511.558 363.194 511.997 362.152 511.978 358.161 C 511.964 355.297 511.290 352.645 510.228 351.282 C 509.116 349.854 498.569 344.955 480.625 337.532 C 449.422 324.624 446.352 323.935 441.687 328.805 "/></g>
<g fill="#000000FF" stroke="#000000FF">
<path d="M 3.077 146.589 C 0.442 148.806 0.003 149.848 0.022 153.839 C 0.036 156.706 0.709 159.351 1.772 160.712 C 4.301 163.949 57.989 186.000 63.342 186.000 C 69.317 186.000 73.000 182.187 73.000 176.000 C 73.000 172.233 72.489 170.905 70.250 168.846 C 66.446 165.348 14.486 144.000 9.777 144.000 C 7.338 144.000 5.148 144.846 3.077 146.589 "/></g>
<g fill="#000000FF" stroke="#000000FF">
<path d="M 169.150 441.750 C 165.419 445.311 144.000 496.824 144.000 502.237 C 144.000 504.661 144.850 506.857 146.589 508.923 C 148.806 511.558 149.848 511.997 153.839 511.978 C 156.703 511.964 159.355 511.290 160.718 510.228 C 163.971 507.694 186.000 454.065 186.000 448.679 C 186.000 439.777 175.669 435.529 169.150 441.750 "/></g>
<g fill="#000000FF" stroke="#000000FF">
<path d="M 470.524 155.520 C 440.841 167.959 439.000 169.170 439.000 176.251 C 439.000 182.059 442.802 185.994 448.437 186.016 C 453.583 186.037 506.029 164.687 509.609 161.114 C 511.463 159.263 512.000 157.655 512.000 153.953 C 512.000 149.848 511.568 148.814 508.923 146.589 C 503.718 142.209 500.503 142.957 470.524 155.520 "/></g>
<g fill="#000000FF" stroke="#000000FF">
<path d="M 398.763 394.565 C 394.858 396.684 392.665 401.396 393.501 405.871 C 394.045 408.784 396.579 411.893 406.339 421.622 C 418.638 433.883 420.585 435.087 426.673 434.198 C 429.538 433.780 433.655 429.584 434.249 426.476 C 435.267 421.154 433.687 418.525 422.743 407.325 C 409.014 393.275 405.039 391.160 398.763 394.565 "/></g>
<g fill="#000000FF" stroke="#000000FF">
<path d="M 103.325 394.611 C 98.557 396.963 78.429 417.974 77.802 421.255 C 77.013 425.384 77.948 428.675 80.689 431.416 C 83.340 434.067 85.765 434.738 90.500 434.130 C 95.087 433.541 117.569 410.850 118.499 405.871 C 119.353 401.301 117.099 396.620 113.033 394.517 C 109.354 392.615 107.334 392.634 103.325 394.611 "/></g>
<g fill="#000000FF" stroke="#000000FF">
<path d="M 421.500 77.833 C 416.947 78.354 394.440 101.099 393.501 106.129 C 392.124 113.499 398.939 120.027 406.354 118.440 C 410.555 117.540 433.501 94.744 434.225 90.750 C 434.975 86.607 434.044 83.317 431.364 80.636 C 428.752 78.025 426.187 77.296 421.500 77.833 "/></g>
<g fill="#000000FF" stroke="#000000FF">
<path d="M 85.327 77.802 C 82.462 78.220 78.345 82.416 77.751 85.524 C 76.696 91.040 78.188 93.414 90.387 105.633 C 103.628 118.897 106.090 120.243 112.330 117.635 C 116.924 115.716 119.420 111.060 118.499 106.129 C 117.955 103.216 115.421 100.107 105.661 90.378 C 93.362 78.117 91.415 76.913 85.327 77.802 "/></g>
<g fill="#000000FF" stroke="#000000FF">
<path d="M 248.636 457.636 L 246.000 460.273 246.000 479.213 L 246.000 498.154 248.923 501.077 C 251.216 503.369 252.742 504.000 256.000 504.000 C 259.258 504.000 260.784 503.369 263.077 501.077 L 266.000 498.154 266.000 479.213 L 266.000 460.273 263.364 457.636 C 261.259 455.531 259.774 455.000 256.000 455.000 C 252.226 455.000 250.741 455.531 248.636 457.636 "/></g>
<g fill="#000000FF" stroke="#000000FF">
<path d="M 457.636 248.636 C 455.531 250.741 455.000 252.226 455.000 256.000 C 455.000 259.774 455.531 261.259 457.636 263.364 L 460.273 266.000 479.213 266.000 L 498.154 266.000 501.077 263.077 C 503.369 260.784 504.000 259.258 504.000 256.000 C 504.000 252.742 503.369 251.216 501.077 248.923 L 498.154 246.000 479.213 246.000 L 460.273 246.000 457.636 248.636 "/></g>
<g fill="#000000FF" stroke="#000000FF">
<path d="M 10.923 248.923 C 6.807 253.039 6.807 258.961 10.923 263.077 L 13.846 266.000 32.787 266.000 L 51.727 266.000 54.364 263.364 C 58.122 259.606 58.122 252.394 54.364 248.636 L 51.727 246.000 32.787 246.000 L 13.846 246.000 10.923 248.923 "/></g>
<g fill="#000000FF" stroke="#000000FF">
<path d="M 248.923 10.923 L 246.000 13.846 246.000 32.787 L 246.000 51.727 248.636 54.364 C 252.394 58.122 259.606 58.122 263.364 54.364 L 266.000 51.727 266.000 32.787 L 266.000 13.846 263.077 10.923 C 258.961 6.807 253.039 6.807 248.923 10.923 "/></g>
<g fill="#000000FF" stroke="#000000FF">
<path d="M 382.966 163.250 C 377.895 170.087 381.595 179.565 389.223 179.275 C 396.949 178.982 400.000 176.303 400.000 169.812 C 400.000 164.055 395.770 160.000 389.765 160.000 C 385.975 160.000 385.047 160.443 382.966 163.250 "/></g>
</svg>
