<?xml version="1.0" encoding="utf-8"?>
<!DOCTYPE svg PUBLIC "-//W3C//DTD SVG 20010904//EN" "http://www.w3.org/TR/2001/REC-SVG-20010904/DTD/svg10.dtd">
<svg version="1.0" xmlns="http://www.w3.org/2000/svg" width="512pt" height="512pt" viewBox="0 0 512 512" style="" preserveAspectRatio="xMidYMid meet">
<g fill="#000000FF" stroke="#000000FF">
<path d="M 246.500 51.332 C 236.993 54.466 230.465 59.809 225.934 68.166 L 222.500 74.500 222.235 201.232 L 221.970 327.964 219.041 329.479 C 213.738 332.221 203.931 341.089 199.279 347.349 C 189.542 360.450 185.039 374.100 185.015 390.590 C 184.986 410.452 191.667 426.757 205.467 440.500 C 214.641 449.636 223.015 454.890 234.500 458.716 C 241.584 461.076 244.046 461.381 256.000 461.381 C 267.954 461.381 270.416 461.076 277.500 458.716 C 288.985 454.890 297.359 449.636 306.533 440.500 C 320.333 426.757 327.014 410.452 326.985 390.590 C 326.961 374.100 322.458 360.450 312.721 347.349 C 308.069 341.089 298.262 332.221 292.959 329.479 L 290.030 327.964 289.765 201.232 L 289.500 74.500 286.066 68.166 C 280.137 57.230 270.051 50.938 257.500 50.345 C 253.468 50.154 248.804 50.573 246.500 51.332 M 271.015 276.750 C 271.026 321.605 271.324 336.082 272.274 337.959 C 272.959 339.312 276.664 342.212 280.509 344.405 C 311.515 362.083 317.440 402.746 292.627 427.558 C 264.219 455.964 215.688 442.452 205.489 403.297 C 199.599 380.684 210.277 356.500 231.491 344.405 C 235.336 342.212 239.041 339.312 239.726 337.959 C 240.676 336.082 240.974 321.605 240.985 276.750 L 241.000 218.000 256.000 218.000 L 271.000 218.000 271.015 276.750 M 262.964 71.250 C 271.366 75.558 271.000 72.436 271.000 139.734 L 271.000 199.000 256.000 199.000 L 241.000 199.000 241.000 139.734 C 241.000 72.555 240.631 75.707 249.013 71.275 C 254.418 68.417 257.428 68.411 262.964 71.250 "/></g>
<g fill="#000000FF" stroke="#000000FF">
<path d="M 239.075 1.029 C 211.589 6.783 187.307 27.190 177.233 53.000 C 171.235 68.367 171.618 59.794 171.258 186.905 L 170.929 303.310 165.435 309.244 C 132.554 344.759 124.842 399.293 146.441 443.552 C 162.213 475.869 190.978 499.505 225.706 508.681 C 238.925 512.173 263.903 513.072 277.500 510.544 C 308.432 504.793 334.772 488.513 353.928 463.308 C 360.935 454.088 370.397 434.606 373.432 423.150 C 384.256 382.295 374.006 338.883 346.529 309.205 L 341.000 303.233 340.996 291.366 C 340.992 278.295 339.529 273.912 334.537 272.014 C 331.325 270.793 326.200 272.449 323.250 275.662 C 321.106 277.996 321.000 278.892 321.000 294.649 L 321.000 311.187 328.423 319.176 C 354.004 346.713 363.283 380.973 354.518 415.528 C 345.574 450.786 319.152 477.963 283.500 488.573 C 276.134 490.765 271.849 491.341 259.894 491.745 C 243.372 492.304 234.675 491.016 220.604 485.924 C 176.566 469.989 148.315 422.489 155.380 376.259 C 158.882 353.341 167.491 336.178 184.560 318.083 L 190.937 311.323 191.258 192.412 C 191.556 81.549 191.699 73.098 193.369 67.563 C 200.238 44.792 218.276 27.154 240.460 21.515 C 248.168 19.556 263.905 19.568 271.540 21.539 C 294.118 27.367 311.787 44.644 318.607 67.563 C 320.200 72.917 320.409 79.982 320.740 139.492 C 321.105 205.219 321.115 205.494 323.238 207.754 C 324.411 209.002 327.156 210.503 329.339 211.091 C 332.747 212.009 333.676 211.888 335.904 210.234 C 341.189 206.312 341.053 208.378 340.694 137.500 C 340.319 63.600 340.483 65.463 332.915 49.156 C 322.417 26.538 304.378 10.647 280.500 2.983 C 274.807 1.156 270.699 0.677 258.500 0.419 C 250.250 0.245 241.509 0.520 239.075 1.029 "/></g>
<g fill="#FF7D97FF" stroke="#FF7D97FF">
<path d="M 241.773 278.396 C 241.461 346.290 242.534 339.292 231.484 345.472 C 219.522 352.161 209.817 364.497 206.390 377.368 C 204.797 383.353 204.615 396.620 206.043 402.808 C 210.139 420.568 225.910 436.174 244.093 440.460 C 266.952 445.848 291.628 434.512 301.690 414.000 C 305.770 405.682 306.945 400.442 306.976 390.432 C 307.032 371.766 297.050 354.718 280.716 345.584 C 269.432 339.274 270.539 346.364 270.227 278.396 L 269.954 219.000 256.000 219.000 L 242.046 219.000 241.773 278.396 "/></g>
<g fill="#000000FF" stroke="#000000FF">
<path d="M 364.775 261.559 C 361.323 263.432 360.000 265.910 360.000 270.500 C 360.000 275.176 361.350 277.612 364.980 279.490 C 367.374 280.728 372.785 281.000 395.000 281.000 C 417.215 281.000 422.626 280.728 425.020 279.490 C 428.650 277.612 430.000 275.176 430.000 270.500 C 430.000 265.824 428.650 263.388 425.020 261.510 C 420.768 259.312 368.839 259.354 364.775 261.559 "/></g>
<g fill="#000000FF" stroke="#000000FF">
<path d="M 86.775 261.559 C 83.323 263.432 82.000 265.910 82.000 270.500 C 82.000 275.176 83.350 277.612 86.980 279.490 C 89.374 280.728 94.785 281.000 117.000 281.000 C 139.215 281.000 144.626 280.728 147.020 279.490 C 150.650 277.612 152.000 275.176 152.000 270.500 C 152.000 265.824 150.650 263.388 147.020 261.510 C 142.768 259.312 90.839 259.354 86.775 261.559 "/></g>
<g fill="#000000FF" stroke="#000000FF">
<path d="M 87.383 137.559 C 81.297 140.608 80.022 149.175 84.923 154.077 L 87.846 157.000 117.000 157.000 L 146.154 157.000 149.077 154.077 C 153.154 150.000 153.157 144.327 149.083 139.766 L 146.167 136.500 118.333 136.249 C 94.750 136.036 90.024 136.236 87.383 137.559 "/></g>
<g fill="#000000FF" stroke="#000000FF">
<path d="M 366.388 136.957 C 359.752 139.711 357.867 149.021 362.923 154.077 L 365.846 157.000 395.000 157.000 L 424.154 157.000 427.077 154.077 C 431.154 150.000 431.157 144.327 427.083 139.766 L 424.167 136.500 396.333 136.290 C 381.025 136.175 367.550 136.475 366.388 136.957 "/></g>
<g fill="#000000FF" stroke="#000000FF">
<path d="M 365.110 199.396 C 359.336 202.596 358.189 211.343 362.923 216.077 L 365.846 219.000 382.500 219.000 L 399.154 219.000 402.077 216.077 C 404.367 213.787 405.000 212.257 405.000 209.011 C 405.000 199.526 401.820 197.989 382.300 198.035 C 371.943 198.060 366.783 198.469 365.110 199.396 "/></g>
<g fill="#000000FF" stroke="#000000FF">
<path d="M 111.775 199.559 C 108.231 201.482 107.000 203.919 107.000 209.011 C 107.000 212.257 107.633 213.787 109.923 216.077 L 112.846 219.000 129.500 219.000 L 146.154 219.000 149.077 216.077 C 153.904 211.250 152.495 201.913 146.528 199.195 C 142.526 197.371 115.280 197.657 111.775 199.559 "/></g>
<g fill="#000000FF" stroke="#000000FF">
<path d="M 367.284 74.701 C 363.611 75.412 360.000 80.593 360.000 85.154 C 360.000 88.242 360.667 89.820 362.923 92.077 L 365.846 95.000 382.618 95.000 L 399.391 95.000 402.195 92.313 C 404.485 90.119 405.000 88.768 405.000 84.949 C 405.000 79.482 401.976 75.645 396.861 74.622 C 393.477 73.945 370.877 74.006 367.284 74.701 "/></g>
<g fill="#000000FF" stroke="#000000FF">
<path d="M 114.327 74.652 C 107.157 76.193 104.387 86.664 109.687 92.195 L 112.374 95.000 129.264 95.000 L 146.154 95.000 149.077 92.077 C 153.154 88.000 153.157 82.327 149.083 77.766 L 146.167 74.500 131.333 74.342 C 123.175 74.256 115.522 74.395 114.327 74.652 "/></g>
<g fill="#000000FF" stroke="#000000FF">
<path d="M 328.123 232.384 C 323.500 234.043 321.000 237.425 321.000 242.022 C 321.000 245.038 321.635 246.357 324.077 248.411 C 325.769 249.835 327.681 251.006 328.327 251.014 C 328.972 251.021 330.439 251.279 331.586 251.587 C 334.563 252.387 339.773 247.724 340.554 243.561 C 340.953 241.438 340.629 239.182 339.654 237.299 C 336.898 231.969 333.415 230.485 328.123 232.384 "/></g>
</svg>
