<?xml version="1.0" encoding="utf-8"?>
<!DOCTYPE svg PUBLIC "-//W3C//DTD SVG 20010904//EN" "http://www.w3.org/TR/2001/REC-SVG-20010904/DTD/svg10.dtd">
<svg version="1.0" xmlns="http://www.w3.org/2000/svg" width="512pt" height="512pt" viewBox="0 0 512 512" style="" preserveAspectRatio="xMidYMid meet">
<g fill="#A0C8FFFF" stroke="#A0C8FFFF">
<path d="M 271.000 61.668 C 253.458 64.446 241.453 68.211 227.625 75.272 C 207.188 85.707 188.680 102.552 176.750 121.576 L 174.194 125.653 182.347 131.021 C 192.941 137.996 207.096 152.230 214.383 163.237 C 220.893 173.071 227.961 188.122 227.985 192.203 C 228.020 198.395 223.451 203.000 217.272 203.000 C 212.581 203.000 210.219 200.370 205.028 189.363 C 198.921 176.418 193.416 168.623 183.859 159.391 C 166.669 142.783 145.877 133.530 123.000 132.305 C 93.328 130.717 67.208 140.571 47.897 160.638 C 36.719 172.255 30.082 184.316 25.234 201.824 C 22.850 210.429 22.551 213.271 22.527 227.500 C 22.507 239.609 22.951 245.445 24.353 251.500 C 28.620 269.919 38.407 287.482 51.053 299.411 C 63.068 310.746 74.794 317.161 91.989 321.806 C 101.480 324.370 101.599 324.376 149.000 324.692 L 196.500 325.008 241.849 262.507 C 281.037 208.496 287.625 199.892 290.349 199.167 C 297.046 197.384 304.050 202.092 303.947 208.306 C 303.917 210.063 296.117 232.425 286.613 258.000 L 269.333 304.500 299.515 305.000 C 332.473 305.546 332.041 305.465 334.602 311.592 C 336.078 315.123 335.536 318.294 332.780 322.250 L 330.864 325.000 349.482 325.000 C 364.132 325.000 368.722 325.322 371.020 326.510 C 374.251 328.181 376.000 330.789 376.000 333.934 C 376.000 335.884 376.561 336.000 386.000 336.000 L 396.000 336.000 396.000 333.455 C 396.000 328.464 402.968 324.022 408.586 325.432 C 412.218 326.344 416.000 330.437 416.000 333.455 L 416.000 336.000 426.000 336.000 L 436.000 336.000 436.000 332.636 C 436.000 328.088 439.432 324.858 446.682 322.582 C 473.329 314.218 489.374 295.049 490.697 270.000 C 492.326 239.154 473.098 211.620 444.880 204.391 C 431.993 201.089 413.360 204.086 400.132 211.588 C 397.354 213.164 393.926 214.226 391.566 214.244 C 383.597 214.302 378.997 204.088 384.081 197.624 C 386.955 193.971 401.073 187.347 411.445 184.787 L 420.071 182.657 419.469 178.079 C 415.817 150.328 405.937 127.796 388.164 106.692 C 369.115 84.070 340.415 67.731 310.619 62.546 C 302.473 61.128 277.856 60.583 271.000 61.668 "/></g>
<g fill="#000000FF" stroke="#000000FF">
<path d="M 264.500 41.392 C 247.894 44.129 232.928 48.982 218.168 56.415 C 195.414 67.874 171.522 89.869 158.055 111.755 C 156.281 114.640 154.755 116.995 154.664 116.989 C 154.574 116.983 152.250 116.288 149.500 115.444 C 146.750 114.600 140.225 113.258 135.000 112.461 C 80.364 104.128 28.056 134.138 7.689 185.500 C 1.641 200.752 -0.259 212.669 0.276 232.000 C 0.837 252.332 3.368 263.112 11.459 279.629 C 29.156 315.758 63.053 340.057 102.500 344.891 C 107.450 345.498 126.912 345.996 145.750 345.997 C 164.588 345.999 180.000 346.302 180.000 346.671 C 180.000 347.040 179.213 348.213 178.250 349.276 C 177.132 350.512 176.500 352.826 176.500 355.687 C 176.500 359.480 176.999 360.610 179.766 363.082 L 183.032 366.000 212.516 366.000 C 228.732 366.000 242.000 366.207 242.000 366.459 C 242.000 366.711 234.350 387.681 225.000 413.058 C 215.105 439.914 208.000 460.653 208.000 462.677 C 208.000 467.911 212.487 472.010 218.173 471.968 C 220.553 471.951 223.336 471.303 224.358 470.529 C 225.380 469.755 246.310 441.532 270.869 407.811 L 315.521 346.500 342.558 346.000 C 366.157 345.564 369.936 345.276 372.281 343.737 C 375.635 341.537 376.461 338.425 375.066 333.243 C 373.222 326.398 371.821 326.000 349.535 326.000 C 338.791 326.000 330.000 325.732 330.000 325.404 C 330.000 325.077 331.002 323.401 332.227 321.681 C 335.481 317.111 335.245 311.468 331.672 308.394 L 328.888 306.000 299.003 306.000 C 282.566 306.000 268.940 305.663 268.723 305.250 C 268.506 304.838 276.119 283.575 285.641 258.000 C 295.163 232.425 302.964 210.233 302.977 208.684 C 303.009 204.788 301.472 202.295 297.897 200.447 C 293.824 198.341 289.775 199.349 286.292 203.338 C 284.756 205.096 263.934 233.414 240.020 266.267 L 196.539 326.000 155.493 326.000 C 114.640 326.000 103.307 325.355 91.084 322.335 C 65.288 315.961 43.802 298.644 31.735 274.500 C 16.617 244.253 17.793 205.404 34.700 176.515 C 47.176 155.197 66.204 141.075 91.509 134.353 C 100.248 132.032 103.443 131.697 117.000 131.679 C 129.706 131.663 133.878 132.038 140.146 133.762 C 163.163 140.093 183.247 153.875 196.483 172.424 C 200.728 178.373 209.000 194.498 209.000 196.825 C 209.000 198.934 214.302 202.000 217.948 202.000 C 220.672 202.000 222.323 201.273 224.313 199.195 C 227.947 195.402 227.779 191.341 223.594 181.754 C 214.585 161.119 199.539 143.453 180.046 130.621 C 177.047 128.646 174.138 126.879 173.583 126.694 C 173.028 126.509 175.126 122.565 178.245 117.929 C 194.033 94.464 217.127 76.666 244.000 67.253 C 259.283 61.899 268.541 60.498 288.500 60.518 C 307.221 60.536 311.841 61.153 326.901 65.649 C 367.192 77.676 401.235 110.959 414.355 151.154 C 416.746 158.476 419.269 170.012 420.472 179.116 L 421.082 183.731 416.791 184.393 C 410.197 185.410 398.157 189.662 391.500 193.326 C 384.240 197.320 381.280 201.977 383.047 206.623 C 385.899 214.125 390.603 215.450 398.952 211.105 C 424.054 198.041 448.137 199.393 467.848 214.974 C 481.767 225.976 492.039 247.995 491.983 266.708 C 491.904 292.982 474.418 314.967 446.754 323.575 C 439.800 325.739 437.315 328.180 436.429 333.717 C 435.825 337.496 436.061 338.215 438.802 340.956 C 442.623 344.777 446.100 344.887 456.698 341.525 C 471.174 336.933 485.896 326.482 495.535 313.954 C 501.361 306.383 507.446 293.601 509.990 283.590 C 512.760 272.688 512.758 255.293 509.984 244.410 C 502.128 213.583 477.563 189.890 447.328 183.977 L 441.156 182.771 440.520 177.635 C 435.805 139.555 422.086 110.941 396.072 84.928 C 373.829 62.684 350.078 49.608 319.694 42.876 C 307.832 40.248 276.543 39.407 264.500 41.392 M 252.037 293.603 C 245.005 312.502 244.105 316.459 246.023 320.043 C 248.213 324.135 250.494 324.481 278.645 325.000 L 305.790 325.500 280.042 360.848 C 265.881 380.289 253.851 396.489 253.309 396.848 C 252.767 397.207 255.625 388.528 259.662 377.562 C 263.698 366.596 267.000 356.384 267.000 354.868 C 267.000 353.352 265.915 350.849 264.588 349.306 L 262.176 346.500 234.070 346.000 L 205.964 345.500 232.232 309.426 C 246.679 289.585 258.628 273.656 258.784 274.029 C 258.941 274.401 255.905 283.210 252.037 293.603 "/></g>
<g fill="#000000FF" stroke="#000000FF">
<path d="M 399.611 367.250 C 395.776 370.700 378.115 400.803 376.334 406.925 C 372.214 421.092 379.695 436.894 393.500 443.181 C 400.482 446.361 411.518 446.361 418.500 443.181 C 432.316 436.889 439.786 421.095 435.659 406.899 C 433.885 400.797 417.148 372.009 412.898 367.750 C 409.321 364.165 403.292 363.938 399.611 367.250 M 411.920 403.750 C 417.476 413.322 417.960 415.914 415.074 420.647 C 409.697 429.464 395.017 425.333 395.004 415.000 C 395.001 412.371 404.551 395.000 406.000 395.000 C 406.463 395.000 409.127 398.938 411.920 403.750 "/></g>
<g fill="#000000FF" stroke="#000000FF">
<path d="M 99.611 367.250 C 95.776 370.700 78.115 400.803 76.334 406.925 C 72.214 421.092 79.695 436.894 93.500 443.181 C 100.482 446.361 111.518 446.361 118.500 443.181 C 132.316 436.889 139.786 421.095 135.659 406.899 C 133.885 400.797 117.148 372.009 112.898 367.750 C 109.321 364.165 103.292 363.938 99.611 367.250 M 111.920 403.750 C 117.461 413.296 117.707 414.373 115.536 419.568 C 112.424 427.016 101.224 427.696 96.956 420.696 C 95.884 418.938 95.006 416.375 95.004 415.000 C 95.001 412.371 104.551 395.000 106.000 395.000 C 106.463 395.000 109.127 398.938 111.920 403.750 "/></g>
<g fill="#FFCD69FF" stroke="#FFCD69FF">
<path d="M 232.162 311.129 L 207.825 344.500 234.834 345.000 C 261.680 345.497 261.858 345.515 264.406 347.910 C 269.056 352.282 268.775 354.943 261.596 374.503 C 257.990 384.331 255.170 392.503 255.329 392.663 C 255.489 392.822 266.512 378.001 279.825 359.726 L 304.031 326.500 277.766 326.000 C 250.285 325.477 248.664 325.214 245.551 320.770 C 243.048 317.196 243.667 313.822 249.964 296.708 C 253.244 287.794 256.057 279.883 256.214 279.129 C 256.371 278.375 245.548 292.775 232.162 311.129 "/></g>
<g fill="#000000FF" stroke="#000000FF">
<path d="M 399.760 328.347 C 396.792 331.097 395.294 337.812 396.954 340.915 C 398.282 343.396 403.023 346.001 406.200 345.996 C 409.584 345.991 414.857 342.420 415.548 339.665 C 416.477 335.963 414.296 329.424 411.526 327.609 C 407.912 325.241 402.762 325.564 399.760 328.347 "/></g>
</svg>
