<?xml version="1.0" encoding="utf-8"?>
<!DOCTYPE svg PUBLIC "-//W3C//DTD SVG 20010904//EN" "http://www.w3.org/TR/2001/REC-SVG-20010904/DTD/svg10.dtd">
<svg version="1.0" xmlns="http://www.w3.org/2000/svg" width="512pt" height="512pt" viewBox="0 0 512 512" style="" preserveAspectRatio="xMidYMid meet">
<g fill="#000000FF" stroke="#000000FF">
<path d="M 247.951 50.303 C 238.521 52.969 230.459 60.294 227.520 68.867 C 226.646 71.415 225.654 77.663 225.315 82.750 C 224.746 91.279 224.535 92.001 222.599 92.009 C 221.445 92.013 213.817 93.372 205.650 95.028 C 189.806 98.239 170.764 104.037 157.712 109.623 C 153.313 111.506 149.559 112.892 149.370 112.703 C 149.181 112.515 144.357 100.241 138.650 85.430 C 129.256 61.052 127.952 58.279 124.886 56.169 C 120.771 53.335 115.782 53.763 112.297 57.248 C 110.876 58.669 105.159 72.063 97.449 92.029 C 82.839 129.866 82.204 132.854 86.222 144.795 L 88.678 152.090 76.589 164.340 C 50.518 190.757 31.640 221.987 18.767 260.000 C 16.625 266.325 14.616 273.837 14.302 276.693 C 13.774 281.507 13.955 282.109 16.789 284.943 C 20.781 288.935 23.436 288.890 39.632 284.557 C 46.709 282.663 55.092 280.605 58.260 279.984 C 65.011 278.660 70.000 275.003 70.000 271.379 C 70.000 266.667 67.253 262.004 63.570 260.465 C 60.397 259.139 59.124 259.203 50.010 261.143 C 44.478 262.321 39.745 263.079 39.493 262.826 C 39.240 262.574 40.325 259.022 41.903 254.933 C 53.404 225.135 69.376 200.578 92.184 177.630 C 103.009 166.739 105.323 164.859 107.238 165.403 C 108.482 165.757 111.730 166.492 114.454 167.036 C 131.344 170.410 150.650 156.194 152.701 138.874 C 153.261 134.148 153.534 133.764 157.896 131.566 C 169.924 125.506 205.673 114.049 212.682 114.007 C 213.333 114.003 211.460 117.829 208.522 122.510 C 192.726 147.670 179.795 195.875 174.994 247.500 C 173.440 264.208 173.071 266.241 171.689 265.715 C 171.035 265.467 165.226 264.019 158.780 262.498 C 144.608 259.154 142.101 259.681 138.683 266.716 L 136.546 271.115 138.523 274.807 C 140.696 278.866 140.810 278.914 159.000 283.399 C 164.775 284.823 171.404 286.531 173.731 287.195 C 178.384 288.523 180.458 288.208 197.000 283.655 C 208.951 280.366 226.598 277.349 239.250 276.432 L 249.000 275.726 248.978 375.613 C 248.957 470.705 248.867 475.692 247.104 479.500 C 241.699 491.174 227.653 494.840 218.000 487.096 C 213.254 483.288 211.049 479.212 210.296 472.851 C 209.433 465.568 205.957 462.000 199.723 462.000 C 191.278 462.000 187.726 468.453 190.009 479.648 C 192.566 492.189 201.375 503.474 212.782 508.820 C 217.898 511.218 219.659 511.500 229.500 511.500 C 239.767 511.500 240.933 511.292 247.000 508.375 C 254.033 504.993 260.820 498.853 264.549 492.500 C 270.095 483.049 270.000 485.072 270.000 376.255 L 270.000 275.931 275.250 276.532 C 292.525 278.507 307.366 281.234 318.656 284.507 L 323.813 286.001 324.470 291.251 C 326.017 303.595 335.391 315.758 346.586 319.946 C 354.135 322.771 364.986 322.726 372.705 319.837 C 380.688 316.851 388.880 308.609 391.907 300.520 C 393.961 295.029 394.737 285.838 393.765 278.500 C 393.507 276.554 394.049 276.503 414.000 276.604 C 437.183 276.723 450.792 278.570 472.683 284.569 C 479.567 286.456 486.765 288.000 488.677 288.000 C 493.544 288.000 498.000 283.488 498.000 278.558 C 498.000 271.923 486.887 240.639 478.905 224.802 C 464.467 196.159 440.895 166.735 416.605 147.037 C 382.306 119.222 337.335 99.230 294.894 92.929 L 287.288 91.800 286.679 82.650 C 285.915 71.196 283.938 65.347 278.889 59.612 C 271.552 51.276 258.450 47.334 247.951 50.303 M 264.040 111.605 C 293.057 120.222 314.280 171.361 325.520 259.750 C 325.948 263.118 325.818 265.000 325.158 265.000 C 324.591 265.000 319.581 263.899 314.025 262.554 C 293.293 257.534 283.361 256.514 255.500 256.545 C 229.034 256.574 215.334 257.985 198.250 262.441 L 193.000 263.810 193.005 260.655 C 193.012 255.618 196.750 225.604 199.003 212.500 C 207.134 165.193 221.479 130.137 238.205 116.700 C 242.352 113.368 250.909 110.082 255.568 110.033 C 257.256 110.015 261.069 110.722 264.040 111.605 M 310.500 116.471 C 331.811 121.232 357.506 131.936 378.403 144.758 C 407.681 162.721 435.315 190.222 452.001 218.000 C 460.183 231.622 473.884 261.449 472.565 262.768 C 472.313 263.021 467.470 262.309 461.803 261.187 C 440.337 256.936 435.793 256.528 409.857 256.514 L 384.213 256.500 376.940 237.500 C 367.119 211.845 366.843 211.333 362.075 209.904 C 358.664 208.882 357.717 208.981 354.845 210.658 C 352.018 212.309 350.864 214.318 346.868 224.544 C 344.298 231.120 341.962 235.825 341.677 235.000 C 341.391 234.175 340.170 227.650 338.964 220.500 C 332.102 179.842 318.733 141.182 304.557 121.000 C 299.607 113.952 299.501 113.711 301.625 114.346 C 302.656 114.655 306.650 115.611 310.500 116.471 M 367.489 266.227 C 373.485 281.927 374.203 284.540 373.767 289.073 C 373.364 293.262 372.628 294.839 369.709 297.758 C 362.871 304.596 350.633 302.972 346.314 294.653 C 343.486 289.205 344.321 284.557 351.462 266.000 C 359.032 246.330 358.947 246.514 359.973 247.663 C 360.384 248.123 363.766 256.477 367.489 266.227 M 127.452 112.651 C 135.653 133.942 135.805 138.189 128.603 144.917 C 124.752 148.514 116.389 149.022 111.433 145.959 C 106.889 143.150 103.502 136.242 104.419 131.654 C 104.959 128.957 113.435 106.137 117.663 96.000 C 119.483 91.636 119.119 91.016 127.452 112.651 M 263.250 73.112 C 265.745 75.761 266.000 76.726 266.000 83.516 L 266.000 91.000 256.000 91.000 L 246.000 91.000 246.000 83.577 C 246.000 77.091 246.320 75.773 248.534 73.142 C 252.657 68.242 258.651 68.230 263.250 73.112 "/></g>
<g fill="#FFC145FF" stroke="#FFC145FF">
<path d="M 248.365 112.029 C 227.434 118.495 209.170 156.734 199.659 214.000 C 196.988 230.083 194.003 254.167 194.001 259.655 L 194.000 262.810 199.250 261.442 C 211.774 258.178 230.190 255.861 248.000 255.307 C 272.773 254.536 293.321 256.606 315.824 262.139 C 320.402 263.265 324.361 263.972 324.622 263.711 C 325.212 263.121 322.536 242.378 319.888 227.006 C 312.872 186.291 300.441 149.583 287.552 131.520 C 281.992 123.729 274.526 116.940 268.280 113.995 C 262.935 111.474 253.254 110.519 248.365 112.029 "/></g>
<g fill="#FFC145FF" stroke="#FFC145FF">
<path d="M 197.500 118.440 C 183.900 121.944 173.354 125.601 161.371 130.967 C 154.342 134.115 154.235 134.219 153.760 138.436 C 152.593 148.786 144.923 159.399 134.784 164.689 C 130.114 167.126 128.396 167.449 120.000 167.473 C 114.775 167.488 109.270 167.116 107.766 166.646 C 105.213 165.848 104.217 166.609 92.720 178.146 C 78.500 192.413 67.379 206.936 57.629 223.970 C 51.384 234.879 39.582 260.915 40.476 261.810 C 40.679 262.012 44.303 261.463 48.529 260.589 C 60.112 258.194 63.598 258.445 67.077 261.923 C 68.685 263.531 70.000 265.605 70.000 266.531 C 70.000 267.772 70.594 268.075 72.250 267.680 C 73.488 267.385 79.113 266.828 84.750 266.443 C 92.612 265.906 95.000 265.411 95.000 264.322 C 95.000 258.853 101.335 254.278 107.346 255.405 C 111.231 256.134 113.514 258.307 115.063 262.752 C 116.281 266.246 117.071 266.512 129.183 267.519 L 136.867 268.158 138.500 265.000 C 139.445 263.172 141.591 261.233 143.596 260.395 C 146.757 259.075 147.997 259.165 157.780 261.432 C 163.676 262.798 169.414 264.187 170.531 264.517 C 172.464 265.090 172.620 264.457 173.777 251.309 C 178.462 198.097 191.753 147.258 207.452 122.500 C 209.893 118.650 211.578 115.408 211.195 115.295 C 210.813 115.183 204.650 116.598 197.500 118.440 "/></g>
<g fill="#FFC145FF" stroke="#FFC145FF">
<path d="M 302.000 115.440 C 302.000 115.602 304.063 118.811 306.584 122.571 C 320.900 143.920 333.882 183.259 341.028 226.939 L 342.245 234.378 346.206 223.939 C 348.384 218.198 350.880 212.706 351.752 211.735 C 355.036 208.078 363.296 207.868 366.781 211.352 C 367.537 212.109 371.876 222.318 376.423 234.040 L 384.689 255.351 409.595 255.505 C 434.427 255.658 444.689 256.612 462.815 260.451 C 466.839 261.303 470.506 262.000 470.965 262.000 C 472.297 262.000 466.070 246.558 459.445 233.435 C 437.755 190.467 403.432 156.970 358.500 134.921 C 350.800 131.142 340.687 126.663 336.028 124.968 C 328.144 122.100 302.000 114.780 302.000 115.440 "/></g>
<g fill="#000000FF" stroke="#000000FF">
<path d="M 407.098 1.750 C 405.749 2.862 400.355 15.351 392.307 36.000 L 379.639 68.500 379.570 78.500 C 379.506 87.653 379.749 88.991 382.436 94.294 C 386.031 101.389 392.297 107.330 399.825 110.780 C 407.454 114.277 418.785 114.408 427.262 111.098 C 434.617 108.225 442.211 100.921 445.796 93.270 C 448.134 88.282 448.490 86.281 448.428 78.500 L 448.357 69.500 435.810 37.204 C 428.582 18.599 422.285 3.868 420.957 2.454 C 418.072 -0.617 410.440 -1.004 407.098 1.750 M 421.847 57.253 C 427.860 73.007 429.098 77.210 428.670 80.413 C 428.095 84.715 425.810 88.306 421.692 91.381 C 418.000 94.137 409.986 94.121 406.246 91.350 C 402.024 88.222 399.002 83.126 398.984 79.102 C 398.969 75.645 412.638 37.997 413.906 38.003 C 414.233 38.005 417.806 46.667 421.847 57.253 "/></g>
<g fill="#A0C8FFFF" stroke="#A0C8FFFF">
<path d="M 352.179 266.450 C 348.231 276.719 345.000 286.008 345.000 287.093 C 345.000 290.134 347.528 295.483 350.097 297.876 C 357.558 304.827 370.335 300.896 373.050 290.814 C 374.187 286.593 373.217 283.236 364.189 260.139 L 359.358 247.778 352.179 266.450 "/></g>
<g fill="#A0C8FFFF" stroke="#A0C8FFFF">
<path d="M 112.181 112.307 C 108.232 122.514 105.002 132.133 105.004 133.683 C 105.008 136.678 108.180 142.637 110.877 144.716 C 113.817 146.983 119.386 148.036 122.980 147.006 C 129.552 145.121 133.626 139.051 133.156 131.846 C 133.061 130.386 130.233 122.061 126.872 113.346 C 123.511 104.631 120.447 96.656 120.062 95.624 C 119.563 94.284 117.310 99.052 112.181 112.307 "/></g>
<g fill="#A0C8FFFF" stroke="#A0C8FFFF">
<path d="M 406.737 57.510 C 399.301 76.755 398.681 80.729 402.270 86.102 C 409.752 97.302 425.904 93.594 427.691 80.265 C 428.100 77.216 426.872 72.959 421.550 58.977 C 417.891 49.365 414.577 41.179 414.185 40.787 C 413.793 40.394 410.442 47.920 406.737 57.510 "/></g>
<g fill="#000000FF" stroke="#000000FF">
<path d="M 99.659 258.054 C 96.197 260.776 94.352 267.420 96.132 270.747 C 97.973 274.186 102.602 276.326 106.744 275.654 C 110.809 274.995 112.612 273.652 114.603 269.801 C 115.934 267.227 115.889 266.537 114.131 262.564 C 113.062 260.148 111.275 257.683 110.160 257.086 C 106.994 255.391 102.519 255.804 99.659 258.054 "/></g>
</svg>
