<?xml version="1.0" encoding="utf-8"?>
<!DOCTYPE svg PUBLIC "-//W3C//DTD SVG 20010904//EN" "http://www.w3.org/TR/2001/REC-SVG-20010904/DTD/svg10.dtd">
<svg version="1.0" xmlns="http://www.w3.org/2000/svg" width="512pt" height="512pt" viewBox="0 0 512 512" style="" preserveAspectRatio="xMidYMid meet">
<g fill="#A0C8FFFF" stroke="#A0C8FFFF">
<path d="M 277.000 42.078 C 237.538 45.203 201.248 66.239 179.130 98.809 C 176.898 102.095 174.943 105.225 174.786 105.764 C 174.629 106.302 178.100 109.148 182.500 112.088 C 192.819 118.984 207.264 133.353 213.993 143.417 C 220.053 152.481 226.880 166.484 227.699 171.532 C 228.807 178.362 224.092 184.000 217.272 184.000 C 212.547 184.000 210.404 181.507 204.159 168.747 C 189.893 139.597 166.525 121.090 136.010 114.774 C 123.748 112.236 104.497 112.727 92.646 115.881 C 75.642 120.406 55.853 132.455 45.230 144.750 C 33.911 157.850 25.817 173.784 22.489 189.515 C 20.343 199.660 20.290 218.913 22.382 228.615 C 27.583 252.739 42.564 275.284 62.516 289.011 C 69.704 293.957 84.723 300.703 94.044 303.172 C 102.496 305.412 102.547 305.413 213.670 305.957 L 324.840 306.500 327.368 308.876 C 328.759 310.182 330.180 312.545 330.528 314.126 L 331.159 317.000 340.579 317.000 C 348.421 317.000 350.000 316.740 350.000 315.450 C 350.000 310.462 355.179 306.000 360.970 306.000 C 364.678 306.000 369.665 310.198 370.506 314.027 L 371.159 317.000 380.579 317.000 C 388.421 317.000 390.000 316.740 390.000 315.450 C 390.000 312.503 392.917 308.277 395.703 307.188 C 397.306 306.562 407.678 305.951 420.000 305.757 C 440.950 305.428 441.719 305.342 450.044 302.400 C 465.366 296.985 477.043 287.058 484.271 273.303 C 489.154 264.012 491.290 255.398 491.290 245.000 C 491.290 228.021 485.733 214.729 473.508 202.468 C 464.250 193.183 454.813 187.917 442.865 185.371 C 429.290 182.478 411.823 185.331 399.733 192.416 C 393.649 195.982 388.715 195.869 384.923 192.077 C 381.352 188.506 380.916 182.648 383.936 178.808 C 387.580 174.176 405.093 166.343 415.881 164.520 L 420.094 163.808 419.478 159.154 C 418.136 149.010 415.624 138.095 412.768 130.000 C 392.775 73.321 337.172 37.313 277.000 42.078 "/></g>
<g fill="#000000FF" stroke="#000000FF">
<path d="M 268.500 21.615 C 242.798 25.355 218.730 34.956 198.256 49.636 C 186.062 58.380 168.906 76.188 160.907 88.405 C 156.297 95.447 154.171 97.894 153.044 97.458 C 140.461 92.586 114.558 90.683 98.155 93.425 C 57.568 100.212 22.910 127.766 8.130 165.000 C 1.569 181.526 0.540 187.581 0.566 209.500 C 0.588 228.225 0.765 230.138 3.353 239.500 C 15.378 283.006 49.059 314.539 94.424 324.761 C 100.614 326.156 115.334 326.398 212.000 326.697 C 321.424 327.036 322.532 327.020 325.775 325.019 C 329.987 322.421 331.200 319.260 329.771 314.605 C 327.399 306.876 337.817 307.568 214.146 306.924 C 116.677 306.416 102.726 306.154 97.000 304.724 C 75.729 299.412 60.971 291.045 46.998 276.376 C 34.913 263.688 27.597 251.003 22.787 234.395 C 20.778 227.461 20.507 224.370 20.557 209.000 C 20.610 192.857 20.827 190.808 23.353 182.579 C 31.609 155.675 49.352 134.339 73.500 122.276 C 99.940 109.068 131.877 108.728 158.456 121.370 C 174.049 128.786 188.239 140.991 197.937 155.328 C 199.734 157.984 203.386 164.819 206.054 170.517 C 208.722 176.216 211.796 181.356 212.886 181.939 C 216.642 183.949 220.963 183.191 224.202 179.952 C 226.873 177.281 227.190 176.380 226.771 172.662 C 226.139 167.056 219.453 152.950 212.840 143.273 C 205.719 132.851 192.374 119.707 181.716 112.615 L 172.997 106.814 174.749 103.834 C 179.054 96.509 189.597 83.646 197.015 76.668 C 221.673 53.472 253.473 41.008 288.000 41.008 C 324.121 41.008 356.028 54.134 381.569 79.500 C 403.614 101.394 416.154 127.357 420.457 160.017 L 421.053 164.534 414.377 165.800 C 401.165 168.307 385.059 176.523 383.264 181.672 C 381.658 186.279 383.732 191.125 388.255 193.335 L 392.010 195.170 401.755 190.655 C 414.754 184.633 418.701 183.662 430.500 183.585 C 438.262 183.534 442.179 184.037 448.000 185.833 C 474.479 194.002 492.000 217.302 492.000 244.345 C 492.000 255.716 490.628 261.804 485.768 272.000 C 477.595 289.148 460.400 302.136 441.385 305.525 C 436.550 306.387 426.314 306.944 414.924 306.965 C 396.721 306.999 396.304 307.047 394.133 309.359 C 392.914 310.656 391.446 313.421 390.871 315.504 C 389.983 318.723 390.116 319.680 391.759 321.895 C 395.492 326.925 396.743 327.129 421.000 326.676 C 439.529 326.329 444.824 325.897 451.000 324.229 C 480.693 316.208 502.430 294.230 509.984 264.590 C 512.472 254.830 512.705 236.678 510.468 227.000 C 504.938 203.083 489.278 182.792 468.019 171.999 C 462.056 168.971 451.079 165.284 445.568 164.458 L 441.118 163.791 440.469 158.145 C 438.273 139.043 433.459 122.721 424.939 105.500 C 410.495 76.301 387.531 52.842 359.000 38.137 C 345.409 31.132 336.282 27.723 322.000 24.317 C 312.990 22.169 308.662 21.768 291.500 21.496 C 280.500 21.321 270.150 21.375 268.500 21.615 "/></g>
<g fill="#000000FF" stroke="#000000FF">
<path d="M 251.870 373.033 C 238.474 375.091 228.635 380.203 218.412 390.418 C 210.201 398.623 204.824 408.454 202.504 419.500 C 200.621 428.472 200.622 433.369 202.510 437.020 C 204.437 440.745 206.830 442.000 212.011 442.000 C 217.709 442.000 222.000 437.827 222.000 432.287 C 222.000 426.321 224.782 417.015 228.120 411.813 C 238.718 395.297 258.884 389.104 276.578 396.932 C 283.349 399.927 292.250 408.970 295.631 416.288 C 298.153 421.748 298.500 423.650 298.500 432.000 C 298.500 440.214 298.137 442.274 295.820 447.218 C 290.030 459.571 278.219 468.248 264.827 469.987 C 260.797 470.510 225.538 470.952 186.473 470.969 C 107.886 471.003 112.268 470.629 109.999 477.503 C 109.127 480.146 109.127 481.854 109.999 484.497 C 112.277 491.399 107.170 491.000 193.171 491.000 L 270.897 491.000 278.777 488.511 C 303.463 480.712 319.937 457.914 319.985 431.480 C 320.019 413.374 311.839 396.544 297.500 385.213 C 284.934 375.283 267.508 370.631 251.870 373.033 "/></g>
<g fill="#000000FF" stroke="#000000FF">
<path d="M 109.836 357.854 C 102.289 360.354 98.225 362.983 92.587 369.011 C 87.064 374.915 84.053 380.999 84.022 386.316 C 83.994 391.163 85.305 393.589 88.980 395.490 C 95.129 398.669 100.783 396.336 104.446 389.107 C 113.588 371.066 137.191 373.975 141.439 393.666 C 143.013 400.964 137.435 410.534 129.509 414.135 C 125.816 415.812 121.804 415.958 78.673 415.978 L 31.846 416.000 28.923 418.923 C 26.633 421.213 26.000 422.743 26.000 425.989 C 26.000 431.170 27.255 433.563 30.980 435.490 C 35.382 437.766 123.778 437.730 132.540 435.448 C 140.166 433.462 146.126 429.947 151.659 424.173 C 170.541 404.466 164.258 371.439 139.415 359.813 C 130.807 355.785 118.536 354.972 109.836 357.854 "/></g>
<g fill="#000000FF" stroke="#000000FF">
<path d="M 435.746 357.029 C 425.187 359.678 414.524 368.295 409.615 378.145 C 406.193 385.011 406.231 389.107 409.750 393.046 C 415.472 399.450 423.579 397.665 427.984 389.032 C 435.127 375.030 451.746 373.155 461.379 385.265 C 469.249 395.159 463.657 411.502 451.219 414.956 C 448.912 415.597 430.140 415.991 401.766 415.994 L 356.032 416.000 352.766 418.918 C 349.982 421.405 349.500 422.509 349.500 426.395 C 349.500 430.044 350.053 431.508 352.272 433.727 L 355.044 436.500 401.272 436.805 C 432.996 437.014 449.382 436.751 453.500 435.966 C 466.008 433.583 477.428 424.723 482.820 413.218 C 485.219 408.100 485.500 406.343 485.500 396.479 C 485.500 386.054 485.323 385.099 482.232 378.820 C 478.031 370.287 469.344 362.044 461.285 358.945 C 454.799 356.451 441.904 355.484 435.746 357.029 "/></g>
<g fill="#000000FF" stroke="#000000FF">
<path d="M 354.133 309.359 C 351.304 312.370 349.585 318.357 350.864 320.747 C 353.891 326.403 360.541 328.321 365.775 325.047 C 369.939 322.443 371.261 319.119 369.855 314.787 C 367.425 307.298 358.850 304.338 354.133 309.359 "/></g>
</svg>
